<?xml version="1.0" encoding="UTF-8"?>
<svg version="1.1" xmlns="http://www.w3.org/2000/svg" width="280" height="280">
<path d="M0 0 C92.4 0 184.8 0 280 0 C280 92.4 280 184.8 280 280 C187.6 280 95.2 280 0 280 C0 187.6 0 95.2 0 0 Z " fill="#1B112C" transform="translate(0,0)"/>
<path d="M0 0 C2.26559398 0.95940917 3.56644246 2.0193758 5.31765747 3.74353027 C5.94122635 4.35118729 6.56479523 4.9588443 7.20726013 5.58491516 C8.19812874 6.57548164 8.19812874 6.57548164 9.20901489 7.58605957 C9.89380417 8.26323532 10.57859344 8.94041107 11.28413391 9.6381073 C12.72772065 11.07089555 14.16735608 12.50767431 15.603302 13.94812012 C17.8097683 16.15556089 20.03669723 18.34081392 22.26565552 20.5255127 C23.66474063 21.91939269 25.06257127 23.31453323 26.45901489 24.71105957 C27.12971512 25.36536453 27.80041534 26.01966949 28.49143982 26.69380188 C29.09924789 27.31091537 29.70705597 27.92802887 30.33328247 28.56384277 C30.87414993 29.10265579 31.4150174 29.64146881 31.97227478 30.1966095 C33.00198364 31.84777832 33.00198364 31.84777832 32.84976196 33.84579468 C31.8903528 36.11138866 30.83038616 37.41223714 29.10623169 39.16345215 C28.49857468 39.78702103 27.89091766 40.4105899 27.2648468 41.05305481 C26.60446915 41.71363388 25.94409149 42.37421295 25.26370239 43.05480957 C24.58652664 43.73959885 23.90935089 44.42438812 23.21165466 45.12992859 C21.77886641 46.57351533 20.34208766 48.01315076 18.90164185 49.44909668 C16.69420107 51.65556298 14.50894804 53.88249191 12.32424927 56.1114502 C10.93036927 57.51053531 9.53522874 58.90836595 8.13870239 60.30480957 C7.48439743 60.9755098 6.83009247 61.64621002 6.15596008 62.3372345 C5.53884659 62.94504257 4.92173309 63.55285065 4.28591919 64.17907715 C3.74710617 64.71994461 3.20829315 65.26081207 2.65315247 65.81806946 C1.00198364 66.84777832 1.00198364 66.84777832 -0.99603271 66.69555664 C-3.26162669 65.73614747 -4.56247518 64.67618084 -6.31369019 62.95202637 C-6.93725906 62.34436935 -7.56082794 61.73671234 -8.20329285 61.11064148 C-8.86387192 60.45026382 -9.52445099 59.78988617 -10.20504761 59.10949707 C-11.23223152 58.09373344 -11.23223152 58.09373344 -12.28016663 57.05744934 C-13.72375336 55.62466109 -15.16338879 54.18788233 -16.59933472 52.74743652 C-18.80580101 50.53999575 -21.03272994 48.35474272 -23.26168823 46.17004395 C-24.66077335 44.77616395 -26.05860399 43.38102341 -27.45504761 41.98449707 C-28.12574783 41.33019211 -28.79644806 40.67588715 -29.48747253 40.00175476 C-30.09528061 39.38464127 -30.70308868 38.76752777 -31.32931519 38.13171387 C-31.87018265 37.59290085 -32.41105011 37.05408783 -32.9683075 36.49894714 C-33.99801636 34.84777832 -33.99801636 34.84777832 -33.84579468 32.84976196 C-32.88638551 30.58416798 -31.82641887 29.2833195 -30.1022644 27.53210449 C-29.49460739 26.90853561 -28.88695038 26.28496674 -28.26087952 25.64250183 C-27.27031303 24.65163322 -27.27031303 24.65163322 -26.25973511 23.64074707 C-25.58255936 22.95595779 -24.90538361 22.27116852 -24.20768738 21.56562805 C-22.77489913 20.12204132 -21.33812037 18.68240589 -19.89767456 17.24645996 C-17.69023378 15.03999366 -15.50498076 12.81306473 -13.32028198 10.58410645 C-11.92640198 9.18502133 -10.53126145 7.78719069 -9.13473511 6.39074707 C-8.48043015 5.72004684 -7.82612518 5.04934662 -7.1519928 4.35832214 C-6.5348793 3.75051407 -5.91776581 3.14270599 -5.2819519 2.51647949 C-4.74313889 1.97561203 -4.20432587 1.43474457 -3.64918518 0.87748718 C-1.99801636 -0.15222168 -1.99801636 -0.15222168 0 0 Z " fill="#9621FD" transform="translate(204.99801635742188,171.1522216796875)"/>
<path d="M0 0 C3.96 0 7.92 0 12 0 C12.33 2.64 12.66 5.28 13 8 C14.32 8 15.64 8 17 8 C17.33 5.36 17.66 2.72 18 0 C19.62463842 -0.05395478 21.24978541 -0.09277195 22.875 -0.125 C24.23238281 -0.15980469 24.23238281 -0.15980469 25.6171875 -0.1953125 C28 0 28 0 30 2 C30.24723816 4.01808167 30.24723816 4.01808167 30.24291992 6.52563477 C30.24753487 7.93202965 30.24753487 7.93202965 30.25224304 9.36683655 C30.24505753 10.38144455 30.23787201 11.39605255 30.23046875 12.44140625 C30.23001053 13.47941879 30.22955231 14.51743134 30.2290802 15.5868988 C30.22605583 17.78344871 30.21816405 19.97999643 30.20581055 22.17651367 C30.1875568 25.55199722 30.18530079 28.92720664 30.18554688 32.30273438 C30.18063177 34.43229406 30.17480349 36.56185187 30.16796875 38.69140625 C30.16685593 39.70803848 30.1657431 40.72467072 30.16459656 41.77210999 C30.15821671 42.70655441 30.15183685 43.64099884 30.14526367 44.60375977 C30.13954597 45.84380516 30.13954597 45.84380516 30.13371277 47.10890198 C30 49 30 49 29 50 C27.14712498 50.07226502 25.29166122 50.0838122 23.4375 50.0625 C22.42558594 50.05347656 21.41367188 50.04445312 20.37109375 50.03515625 C19.19740234 50.01775391 19.19740234 50.01775391 18 50 C17.505 46.04 17.505 46.04 17 42 C15.68 42 14.36 42 13 42 C12.67 44.64 12.34 47.28 12 50 C8.04 50 4.08 50 0 50 C-0.33 47.69 -0.66 45.38 -1 43 C-2.32 42.67 -3.64 42.34 -5 42 C-5.66 44.31 -6.32 46.62 -7 49 C-8.81242052 49.02687279 -10.62495233 49.04633715 -12.4375 49.0625 C-13.44683594 49.07410156 -14.45617188 49.08570313 -15.49609375 49.09765625 C-18 49 -18 49 -19 48 C-19.09813987 46.56259647 -19.1279828 45.12043673 -19.12939453 43.6796875 C-19.13254669 42.76203613 -19.13569885 41.84438477 -19.13894653 40.89892578 C-19.1369223 39.90103027 -19.13489807 38.90313477 -19.1328125 37.875 C-19.13376923 36.85776855 -19.13472595 35.84053711 -19.13571167 34.79248047 C-19.13639361 32.63704364 -19.13453835 30.48160478 -19.13037109 28.32617188 C-19.12502305 25.01427629 -19.13031563 21.70251633 -19.13671875 18.390625 C-19.13605797 16.30208303 -19.13477681 14.21354115 -19.1328125 12.125 C-19.13483673 11.12710449 -19.13686096 10.12920898 -19.13894653 9.10107422 C-19.13579437 8.18342285 -19.13264221 7.26577148 -19.12939453 6.3203125 C-19.12859894 5.50836426 -19.12780334 4.69641602 -19.12698364 3.85986328 C-19 2 -19 2 -18 1 C-16.14712498 0.92773498 -14.29166122 0.9161878 -12.4375 0.9375 C-11.42558594 0.94652344 -10.41367188 0.95554687 -9.37109375 0.96484375 C-8.19740234 0.98224609 -8.19740234 0.98224609 -7 1 C-6.34 3.31 -5.68 5.62 -5 8 C-3.68 8.33 -2.36 8.66 -1 9 C-0.67 6.03 -0.34 3.06 0 0 Z " fill="#D728D9" transform="translate(78,114)"/>
<path d="M0 0 C0.91765137 -0.00315216 1.83530273 -0.00630432 2.78076172 -0.009552 C4.27760498 -0.00651566 4.27760498 -0.00651566 5.8046875 -0.00341797 C6.82191895 -0.00437469 7.83915039 -0.00533142 8.88720703 -0.00631714 C11.04264386 -0.00699908 13.19808272 -0.00514382 15.35351562 -0.00097656 C18.66541121 0.00437148 21.97717117 -0.0009211 25.2890625 -0.00732422 C27.37760447 -0.00666344 29.46614635 -0.00538228 31.5546875 -0.00341797 C32.55258301 -0.0054422 33.55047852 -0.00746643 34.57861328 -0.009552 C35.49626465 -0.00639984 36.41391602 -0.00324768 37.359375 0 C38.17132324 0.00079559 38.98327148 0.00159119 39.81982422 0.00241089 C41.6796875 0.12939453 41.6796875 0.12939453 42.6796875 1.12939453 C42.75195252 2.98226955 42.7634997 4.83773331 42.7421875 6.69189453 C42.73316406 7.70380859 42.72414062 8.71572266 42.71484375 9.75830078 C42.70324219 10.54076172 42.69164062 11.32322266 42.6796875 12.12939453 C40.3696875 12.78939453 38.0596875 13.44939453 35.6796875 14.12939453 C36.1746875 16.10939453 36.1746875 16.10939453 36.6796875 18.12939453 C38.9896875 18.45939453 41.2996875 18.78939453 43.6796875 19.12939453 C43.6796875 23.08939453 43.6796875 27.04939453 43.6796875 31.12939453 C39.7196875 31.62439453 39.7196875 31.62439453 35.6796875 32.12939453 C35.6796875 33.44939453 35.6796875 34.76939453 35.6796875 36.12939453 C38.3196875 36.45939453 40.9596875 36.78939453 43.6796875 37.12939453 C43.70656029 38.94181505 43.72602465 40.75434687 43.7421875 42.56689453 C43.75378906 43.57623047 43.76539063 44.58556641 43.77734375 45.62548828 C43.6796875 48.12939453 43.6796875 48.12939453 42.6796875 49.12939453 C41.21712573 49.23280704 39.74964486 49.26789775 38.28344727 49.2746582 C37.34900284 49.28103806 36.41455841 49.28741791 35.45179749 49.29399109 C34.43516525 49.29510391 33.41853302 49.29621674 32.37109375 49.29736328 C31.33403793 49.30069168 30.29698212 49.30402008 29.22850037 49.30744934 C27.03018641 49.31252313 24.83186473 49.31485753 22.63354492 49.31469727 C19.26012549 49.31688291 15.88703333 49.33503167 12.51367188 49.35400391 C10.38281362 49.35693783 8.25195381 49.35892263 6.12109375 49.35986328 C5.10648575 49.3670488 4.09187775 49.37423431 3.04652405 49.38163757 C2.10892746 49.37856094 1.17133087 49.37548431 0.20532227 49.37231445 C-0.62217026 49.37373947 -1.44966278 49.37516449 -2.30223083 49.37663269 C-4.3203125 49.12939453 -4.3203125 49.12939453 -6.3203125 47.12939453 C-6.515625 44.74658203 -6.515625 44.74658203 -6.4453125 42.00439453 C-6.42726563 41.09431641 -6.40921875 40.18423828 -6.390625 39.24658203 C-6.36742188 38.54791016 -6.34421875 37.84923828 -6.3203125 37.12939453 C-3.6803125 36.79939453 -1.0403125 36.46939453 1.6796875 36.12939453 C1.6796875 34.80939453 1.6796875 33.48939453 1.6796875 32.12939453 C-0.9603125 31.79939453 -3.6003125 31.46939453 -6.3203125 31.12939453 C-6.3203125 27.16939453 -6.3203125 23.20939453 -6.3203125 19.12939453 C-3.3503125 18.79939453 -0.3803125 18.46939453 2.6796875 18.12939453 C2.13260023 15.59195138 2.13260023 15.59195138 0.6796875 13.12939453 C-2.37303715 12.23108614 -2.37303715 12.23108614 -5.3203125 12.12939453 C-5.34718529 10.31697401 -5.36664965 8.5044422 -5.3828125 6.69189453 C-5.39441406 5.68255859 -5.40601562 4.67322266 -5.41796875 3.63330078 C-5.25510845 -0.54243732 -3.73722253 0.00366194 0 0 Z " fill="#D728D9" transform="translate(120.3203125,58.87060546875)"/>
<path d="M0 0 C0.80972763 0.00142502 1.61945526 0.00285004 2.45372009 0.00431824 C3.83008385 -0.00029671 3.83008385 -0.00029671 5.23425293 -0.00500488 C6.22698715 0.00218063 7.21972137 0.00936615 8.24253845 0.01676941 C9.7662632 0.01745674 9.7662632 0.01745674 11.32077026 0.01815796 C13.47024197 0.0211822 15.61971145 0.0290736 17.76914978 0.04142761 C21.07220662 0.05968192 24.37498332 0.06193736 27.67808533 0.06169128 C29.76207214 0.06660637 31.84605705 0.07243465 33.93003845 0.07926941 C35.42217613 0.08093864 35.42217613 0.08093864 36.94445801 0.0826416 C37.85888168 0.08902145 38.77330536 0.09540131 39.71543884 0.10197449 C40.9288369 0.10769218 40.9288369 0.10769218 42.16674805 0.11352539 C44.0198822 0.24723816 44.0198822 0.24723816 45.0198822 1.24723816 C45.09214722 3.10011317 45.1036944 4.95557693 45.0823822 6.80973816 C45.07335876 7.82165222 45.06433533 8.83356628 45.05503845 9.87614441 C45.04343689 10.65860535 45.03183533 11.44106628 45.0198822 12.24723816 C42.7098822 12.90723816 40.3998822 13.56723816 38.0198822 14.24723816 C38.0198822 15.56723816 38.0198822 16.88723816 38.0198822 18.24723816 C40.3298822 18.57723816 42.6398822 18.90723816 45.0198822 19.24723816 C45.0198822 23.20723816 45.0198822 27.16723816 45.0198822 31.24723816 C42.7098822 31.57723816 40.3998822 31.90723816 38.0198822 32.24723816 C38.0198822 33.56723816 38.0198822 34.88723816 38.0198822 36.24723816 C40.3298822 36.57723816 42.6398822 36.90723816 45.0198822 37.24723816 C45.04675499 39.05965868 45.06621936 40.87219049 45.0823822 42.68473816 C45.09398376 43.6940741 45.10558533 44.70341003 45.11753845 45.74333191 C45.0198822 48.24723816 45.0198822 48.24723816 44.0198822 49.24723816 C42.16700719 49.31950318 40.31154343 49.33105036 38.4573822 49.30973816 C37.44546814 49.30071472 36.43355408 49.29169128 35.39097595 49.28239441 C34.21728455 49.26499207 34.21728455 49.26499207 33.0198822 49.24723816 C32.5248822 45.78223816 32.5248822 45.78223816 32.0198822 42.24723816 C30.6998822 42.24723816 29.3798822 42.24723816 28.0198822 42.24723816 C27.6898822 44.55723816 27.3598822 46.86723816 27.0198822 49.24723816 C23.0598822 49.24723816 19.0998822 49.24723816 15.0198822 49.24723816 C14.6898822 46.93723816 14.3598822 44.62723816 14.0198822 42.24723816 C11.5448822 42.74223816 11.5448822 42.74223816 9.0198822 43.24723816 C8.6898822 45.22723816 8.3598822 47.20723816 8.0198822 49.24723816 C6.20746169 49.27411095 4.39492987 49.29357531 2.5823822 49.30973816 C1.57304626 49.32133972 0.56371033 49.33294128 -0.47621155 49.34489441 C-2.9801178 49.24723816 -2.9801178 49.24723816 -3.9801178 48.24723816 C-4.08343707 46.81532955 -4.11861665 45.37841013 -4.12538147 43.9427948 C-4.13176132 43.02837112 -4.13814117 42.11394745 -4.14471436 41.17181396 C-4.14582718 40.17705551 -4.14694 39.18229706 -4.14808655 38.15739441 C-4.15141495 37.14253464 -4.15474335 36.12767487 -4.15817261 35.08206177 C-4.1632463 32.93082636 -4.1655808 30.77958306 -4.16542053 28.62834167 C-4.16760614 25.3273478 -4.18575487 22.02668841 -4.20472717 18.72575378 C-4.20766111 16.64046848 -4.2096459 14.55518157 -4.21058655 12.46989441 C-4.21777206 11.47716019 -4.22495758 10.48442596 -4.23236084 9.46160889 C-4.2277459 8.08524513 -4.2277459 8.08524513 -4.22303772 6.68107605 C-4.22446274 5.87134842 -4.22588776 5.06162079 -4.22735596 4.22735596 C-3.87162121 1.37829451 -2.84906145 0.35573475 0 0 Z " fill="#9421FB" transform="translate(62.98011779785156,58.75276184082031)"/>
<path d="M0 0 C3.63 0 7.26 0 11 0 C11.33 2.64 11.66 5.28 12 8 C13.65 7.67 15.3 7.34 17 7 C17.33 4.69 17.66 2.38 18 0 C21.96 0 25.92 0 30 0 C30.33 2.31 30.66 4.62 31 7 C32.32 7 33.64 7 35 7 C35.33 4.69 35.66 2.38 36 0 C37.81242052 -0.02687279 39.62495233 -0.04633715 41.4375 -0.0625 C42.44683594 -0.07410156 43.45617187 -0.08570313 44.49609375 -0.09765625 C47 0 47 0 48 1 C48.07226502 2.85287502 48.0838122 4.70833878 48.0625 6.5625 C48.05347656 7.57441406 48.04445312 8.58632812 48.03515625 9.62890625 C48.02355469 10.41136719 48.01195312 11.19382813 48 12 C45.69 12.33 43.38 12.66 41 13 C41 14.32 41 15.64 41 17 C43.31 17.33 45.62 17.66 48 18 C48 21.96 48 25.92 48 30 C45.69 30 43.38 30 41 30 C40.67 31.98 40.34 33.96 40 36 C42.64 36.33 45.28 36.66 48 37 C48.02687279 38.81242052 48.04633715 40.62495233 48.0625 42.4375 C48.07410156 43.44683594 48.08570313 44.45617187 48.09765625 45.49609375 C48 48 48 48 47 49 C45.56809139 49.10331927 44.13117197 49.13849886 42.69555664 49.14526367 C41.78113297 49.15164352 40.86670929 49.15802338 39.92457581 49.16459656 C38.43243813 49.16626579 38.43243813 49.16626579 36.91015625 49.16796875 C35.89529648 49.17129715 34.88043671 49.17462555 33.83482361 49.17805481 C31.6835882 49.1831285 29.5323449 49.185463 27.38110352 49.18530273 C24.08010964 49.18748834 20.77945025 49.20563707 17.47851562 49.22460938 C15.39323032 49.22754331 13.30794341 49.2295281 11.22265625 49.23046875 C10.22992203 49.23765427 9.23718781 49.24483978 8.21437073 49.25224304 C7.29679489 49.24916641 6.37921906 49.24608978 5.43383789 49.24291992 C4.62411026 49.24434494 3.81438263 49.24576996 2.9801178 49.24723816 C1 49 1 49 -1 47 C-1.24723816 45.0645752 -1.24723816 45.0645752 -1.24291992 42.67382812 C-1.24599655 41.77950073 -1.24907318 40.88517334 -1.25224304 39.96374512 C-1.24505753 38.99602173 -1.23787201 38.02829834 -1.23046875 37.03125 C-1.23001053 36.04000122 -1.22955231 35.04875244 -1.2290802 34.02746582 C-1.22605582 31.92926844 -1.21816401 29.83107335 -1.20581055 27.73291016 C-1.18757513 24.51326583 -1.18530068 21.29390928 -1.18554688 18.07421875 C-1.18063098 16.03906 -1.17480236 14.00390321 -1.16796875 11.96875 C-1.16685593 11.00102661 -1.1657431 10.03330322 -1.16459656 9.03625488 C-1.15502678 7.69476379 -1.15502678 7.69476379 -1.14526367 6.32617188 C-1.14145187 5.53722534 -1.13764008 4.74827881 -1.13371277 3.9354248 C-1 2 -1 2 0 0 Z " fill="#9421FB" transform="translate(60,170)"/>
<path d="M0 0 C1.34149109 -0.00956978 1.34149109 -0.00956978 2.71008301 -0.01933289 C3.6778064 -0.02044571 4.64552979 -0.02155853 5.64257812 -0.02270508 C6.6338269 -0.02603348 7.62507568 -0.02936188 8.6463623 -0.03279114 C10.7445428 -0.03785926 12.84273136 -0.0401995 14.94091797 -0.04003906 C18.16061581 -0.04222735 21.37997213 -0.06038928 24.59960938 -0.0793457 C26.63476445 -0.08227921 28.66992116 -0.08426429 30.70507812 -0.08520508 C31.67280151 -0.09239059 32.6405249 -0.09957611 33.63757324 -0.10697937 C34.53190063 -0.10390274 35.42622803 -0.10082611 36.34765625 -0.09765625 C37.13660278 -0.09908127 37.92554932 -0.10050629 38.73840332 -0.10197449 C40.67382812 0.14526367 40.67382812 0.14526367 42.67382812 2.14526367 C42.92106628 4.12538147 42.92106628 4.12538147 42.91674805 6.57910156 C42.92136299 7.95546532 42.92136299 7.95546532 42.92607117 9.3596344 C42.91888565 10.35236862 42.91170013 11.34510284 42.90429688 12.36791992 C42.90383865 13.38373642 42.90338043 14.39955292 42.90290833 15.44615173 C42.89988408 17.59562344 42.89199269 19.74509292 42.87963867 21.89453125 C42.86138436 25.19758809 42.85912892 28.50036479 42.859375 31.8034668 C42.85445991 33.88745361 42.84863164 35.97143852 42.84179688 38.05541992 C42.84068405 39.05017838 42.83957123 40.04493683 42.83842468 41.06983948 C42.83204483 41.98426315 42.82566498 42.89868683 42.8190918 43.84082031 C42.8133741 45.05421837 42.8133741 45.05421837 42.80754089 46.29212952 C42.67382812 48.14526367 42.67382812 48.14526367 41.67382812 49.14526367 C39.82095311 49.21752869 37.96548935 49.22907587 36.11132812 49.20776367 C35.09941406 49.19874023 34.0875 49.1897168 33.04492188 49.18041992 C31.87123047 49.16301758 31.87123047 49.16301758 30.67382812 49.14526367 C30.17882812 45.18526367 30.17882812 45.18526367 29.67382812 41.14526367 C26.70382813 41.64026367 26.70382813 41.64026367 23.67382812 42.14526367 C23.67382812 44.45526367 23.67382812 46.76526367 23.67382812 49.14526367 C19.71382812 49.14526367 15.75382812 49.14526367 11.67382812 49.14526367 C11.34382813 46.83526367 11.01382813 44.52526367 10.67382812 42.14526367 C9.35382813 42.14526367 8.03382813 42.14526367 6.67382812 42.14526367 C6.34382812 44.45526367 6.01382813 46.76526367 5.67382812 49.14526367 C3.86140761 49.17213646 2.04887579 49.19160083 0.23632812 49.20776367 C-0.77300781 49.21936523 -1.78234375 49.2309668 -2.82226562 49.24291992 C-5.32617188 49.14526367 -5.32617188 49.14526367 -6.32617188 48.14526367 C-6.39843689 46.29238866 -6.40998407 44.4369249 -6.38867188 42.58276367 C-6.37964844 41.57084961 -6.370625 40.55893555 -6.36132812 39.51635742 C-6.34972656 38.73389648 -6.338125 37.95143555 -6.32617188 37.14526367 C-2.86117187 36.65026367 -2.86117187 36.65026367 0.67382812 36.14526367 C0.67382812 34.82526367 0.67382812 33.50526367 0.67382812 32.14526367 C-1.63617188 31.81526367 -3.94617188 31.48526367 -6.32617188 31.14526367 C-6.32617188 27.18526367 -6.32617188 23.22526367 -6.32617188 19.14526367 C-2.86117187 18.65026367 -2.86117187 18.65026367 0.67382812 18.14526367 C1.00382813 16.49526367 1.33382812 14.84526367 1.67382812 13.14526367 C-0.96617187 12.81526367 -3.60617188 12.48526367 -6.32617188 12.14526367 C-6.32617188 8.51526367 -6.32617188 4.88526367 -6.32617188 1.14526367 C-3.98979176 -0.02292638 -2.60278308 0.01257536 0 0 Z " fill="#269FF9" transform="translate(176.326171875,58.854736328125)"/>
<path d="M0 0 C6.81761894 -0.0252689 13.63522589 -0.04283244 20.45288086 -0.05493164 C22.77417451 -0.05997333 25.09546497 -0.06680651 27.41674805 -0.07543945 C30.74528795 -0.08751225 34.07378602 -0.09322979 37.40234375 -0.09765625 C38.44712387 -0.10281754 39.49190399 -0.10797882 40.56834412 -0.11329651 C41.52926468 -0.11337204 42.49018524 -0.11344757 43.48022461 -0.11352539 C44.33071884 -0.115746 45.18121307 -0.11796661 46.05747986 -0.12025452 C48 0 48 0 49 1 C49.07226502 2.85287502 49.0838122 4.70833878 49.0625 6.5625 C49.05347656 7.57441406 49.04445312 8.58632812 49.03515625 9.62890625 C49.02355469 10.41136719 49.01195312 11.19382812 49 12 C46.36 12.33 43.72 12.66 41 13 C41 14.32 41 15.64 41 17 C43.64 17.33 46.28 17.66 49 18 C49 21.96 49 25.92 49 30 C46.69 30.33 44.38 30.66 42 31 C41.67 32.32 41.34 33.64 41 35 C43.31 35.33 45.62 35.66 48 36 C48 39.96 48 43.92 48 48 C44.04 48 40.08 48 36 48 C35.505 44.535 35.505 44.535 35 41 C33.02 41.495 33.02 41.495 31 42 C30.67 44.31 30.34 46.62 30 49 C26.04 49 22.08 49 18 49 C17.67 46.36 17.34 43.72 17 41 C15.68 41 14.36 41 13 41 C12.67 43.64 12.34 46.28 12 49 C10.18757948 49.02687279 8.37504767 49.04633715 6.5625 49.0625 C5.55316406 49.07410156 4.54382813 49.08570313 3.50390625 49.09765625 C1 49 1 49 0 48 C-0.09311889 46.49581261 -0.11746028 44.98728644 -0.11352539 43.48022461 C-0.11344986 42.51930405 -0.11337433 41.55838348 -0.11329651 40.56834412 C-0.10813522 39.523564 -0.10297394 38.47878387 -0.09765625 37.40234375 C-0.0962413 36.33834854 -0.09482635 35.27435333 -0.09336853 34.17811584 C-0.08775064 30.76454917 -0.07519511 27.351047 -0.0625 23.9375 C-0.05748731 21.62955824 -0.052924 19.32161545 -0.04882812 17.01367188 C-0.0377754 11.34242574 -0.02101987 5.67121747 0 0 Z " fill="#269FF9" transform="translate(115,115)"/>
<path d="M0 0 C1.51400391 0.01740234 1.51400391 0.01740234 3.05859375 0.03515625 C4.07050781 0.04417969 5.08242187 0.05320312 6.125 0.0625 C7.29869141 0.07990234 7.29869141 0.07990234 8.49609375 0.09765625 C8.82609375 2.40765625 9.15609375 4.71765625 9.49609375 7.09765625 C10.81609375 7.09765625 12.13609375 7.09765625 13.49609375 7.09765625 C13.82609375 4.78765625 14.15609375 2.47765625 14.49609375 0.09765625 C18.45609375 0.09765625 22.41609375 0.09765625 26.49609375 0.09765625 C27.15609375 2.40765625 27.81609375 4.71765625 28.49609375 7.09765625 C29.81609375 6.76765625 31.13609375 6.43765625 32.49609375 6.09765625 C32.82609375 4.11765625 33.15609375 2.13765625 33.49609375 0.09765625 C35.30851427 0.07078346 37.12104608 0.0513191 38.93359375 0.03515625 C39.94292969 0.02355469 40.95226562 0.01195313 41.9921875 0 C44.49609375 0.09765625 44.49609375 0.09765625 45.49609375 1.09765625 C45.59423362 2.53505978 45.62407655 3.97721952 45.62548828 5.41796875 C45.62864044 6.33562012 45.6317926 7.25327148 45.63504028 8.19873047 C45.63301605 9.19662598 45.63099182 10.19452148 45.62890625 11.22265625 C45.62986298 12.2398877 45.6308197 13.25711914 45.63180542 14.30517578 C45.63248736 16.46061261 45.6306321 18.61605147 45.62646484 20.77148438 C45.6211168 24.08337996 45.62640938 27.39513992 45.6328125 30.70703125 C45.63215172 32.79557322 45.63087056 34.8841151 45.62890625 36.97265625 C45.63093048 37.97055176 45.63295471 38.96844727 45.63504028 39.99658203 C45.63031204 41.37305908 45.63031204 41.37305908 45.62548828 42.77734375 C45.62469269 43.58929199 45.62389709 44.40124023 45.62307739 45.23779297 C45.49609375 47.09765625 45.49609375 47.09765625 44.49609375 48.09765625 C42.99190636 48.19077514 41.48338019 48.21511653 39.97631836 48.21118164 C38.53493752 48.21106834 38.53493752 48.21106834 37.06443787 48.21095276 C36.01965775 48.20579147 34.97487762 48.20063019 33.8984375 48.1953125 C32.83444229 48.19389755 31.77044708 48.1924826 30.67420959 48.19102478 C27.26064292 48.18540689 23.84714075 48.17285136 20.43359375 48.16015625 C18.12565199 48.15514356 15.8177092 48.15058025 13.50976562 48.14648438 C7.83851664 48.13543164 2.16731615 48.11815502 -3.50390625 48.09765625 C-3.50390625 44.13765625 -3.50390625 40.17765625 -3.50390625 36.09765625 C-0.03890625 35.60265625 -0.03890625 35.60265625 3.49609375 35.09765625 C3.49609375 33.77765625 3.49609375 32.45765625 3.49609375 31.09765625 C1.18609375 30.76765625 -1.12390625 30.43765625 -3.50390625 30.09765625 C-3.50390625 26.13765625 -3.50390625 22.17765625 -3.50390625 18.09765625 C-0.03890625 17.60265625 -0.03890625 17.60265625 3.49609375 17.09765625 C3.49609375 15.77765625 3.49609375 14.45765625 3.49609375 13.09765625 C1.18609375 12.76765625 -1.12390625 12.43765625 -3.50390625 12.09765625 C-3.53077904 10.28523573 -3.5502434 8.47270392 -3.56640625 6.66015625 C-3.57800781 5.65082031 -3.58960938 4.64148438 -3.6015625 3.6015625 C-3.46988459 0.22534083 -3.37622167 0.13167791 0 0 Z " fill="#3243FC" transform="translate(173.50390625,114.90234375)"/>
<path d="M0 0 C1.51400391 0.01740234 1.51400391 0.01740234 3.05859375 0.03515625 C4.07050781 0.04417969 5.08242187 0.05320313 6.125 0.0625 C7.29869141 0.07990234 7.29869141 0.07990234 8.49609375 0.09765625 C8.82609375 2.40765625 9.15609375 4.71765625 9.49609375 7.09765625 C10.81609375 7.09765625 12.13609375 7.09765625 13.49609375 7.09765625 C13.82609375 4.78765625 14.15609375 2.47765625 14.49609375 0.09765625 C18.45609375 0.09765625 22.41609375 0.09765625 26.49609375 0.09765625 C26.82609375 2.40765625 27.15609375 4.71765625 27.49609375 7.09765625 C29.97109375 7.59265625 29.97109375 7.59265625 32.49609375 8.09765625 C32.49609375 5.45765625 32.49609375 2.81765625 32.49609375 0.09765625 C34.30851427 0.07078346 36.12104608 0.0513191 37.93359375 0.03515625 C38.94292969 0.02355469 39.95226562 0.01195312 40.9921875 0 C43.49609375 0.09765625 43.49609375 0.09765625 44.49609375 1.09765625 C44.59432119 2.56570917 44.62407745 4.03843085 44.62548828 5.50976562 C44.62864044 6.44743774 44.6317926 7.38510986 44.63504028 8.35119629 C44.63301605 9.37096558 44.63099182 10.39073486 44.62890625 11.44140625 C44.62986298 12.48083374 44.6308197 13.52026123 44.63180542 14.59118652 C44.63248738 16.79370179 44.63063202 18.99621904 44.62646484 21.19873047 C44.62111683 24.58305344 44.62640934 27.96724369 44.6328125 31.3515625 C44.63215172 33.48567738 44.63087056 35.61979217 44.62890625 37.75390625 C44.63093048 38.77367554 44.63295471 39.79344482 44.63504028 40.84411621 C44.63031204 42.25062439 44.63031204 42.25062439 44.62548828 43.68554688 C44.62469269 44.51526001 44.62389709 45.34497314 44.62307739 46.1998291 C44.49609375 48.09765625 44.49609375 48.09765625 43.49609375 49.09765625 C42.05869022 49.19579612 40.61653048 49.22563905 39.17578125 49.22705078 C38.25812988 49.23020294 37.34047852 49.2333551 36.39501953 49.23660278 C35.39712402 49.23457855 34.39922852 49.23255432 33.37109375 49.23046875 C32.3538623 49.23142548 31.33663086 49.2323822 30.28857422 49.23336792 C28.13313739 49.23404986 25.97769853 49.2321946 23.82226562 49.22802734 C20.51037004 49.2226793 17.19861008 49.22797188 13.88671875 49.234375 C11.79817678 49.23371422 9.7096349 49.23243306 7.62109375 49.23046875 C6.12425049 49.2335051 6.12425049 49.2335051 4.59716797 49.23660278 C3.6795166 49.23345062 2.76186523 49.23029846 1.81640625 49.22705078 C1.00445801 49.22625519 0.19250977 49.22545959 -0.64404297 49.22463989 C-2.50390625 49.09765625 -2.50390625 49.09765625 -3.50390625 48.09765625 C-3.57617127 46.24478123 -3.58771845 44.38931747 -3.56640625 42.53515625 C-3.55738281 41.52324219 -3.54835938 40.51132813 -3.5390625 39.46875 C-3.52746094 38.68628906 -3.51585938 37.90382812 -3.50390625 37.09765625 C-1.19390625 36.43765625 1.11609375 35.77765625 3.49609375 35.09765625 C3.16609375 33.77765625 2.83609375 32.45765625 2.49609375 31.09765625 C0.51609375 30.76765625 -1.46390625 30.43765625 -3.50390625 30.09765625 C-3.50390625 26.13765625 -3.50390625 22.17765625 -3.50390625 18.09765625 C-0.03890625 17.60265625 -0.03890625 17.60265625 3.49609375 17.09765625 C3.49609375 15.77765625 3.49609375 14.45765625 3.49609375 13.09765625 C1.18609375 12.76765625 -1.12390625 12.43765625 -3.50390625 12.09765625 C-3.53077904 10.28523573 -3.5502434 8.47270392 -3.56640625 6.66015625 C-3.57800781 5.65082031 -3.58960937 4.64148438 -3.6015625 3.6015625 C-3.46988459 0.22534083 -3.37622167 0.13167791 0 0 Z " fill="#3243FC" transform="translate(118.50390625,169.90234375)"/>
</svg>
