<?xml version="1.0" encoding="UTF-8"?>
<svg version="1.1" xmlns="http://www.w3.org/2000/svg" width="5000" height="5000">
<path d="M0 0 C1650 0 3300 0 5000 0 C5000 1650 5000 3300 5000 5000 C3350 5000 1700 5000 0 5000 C0 3350 0 1700 0 0 Z " fill="#FEDD58" transform="translate(0,0)"/>
<path d="M0 0 C1.8986273 0.93926665 3.79286527 1.88743609 5.68363408 2.84242338 C6.73559706 3.36578658 7.78756004 3.88914978 8.87140069 4.42837248 C11.80169267 5.88826076 14.72827795 7.35529356 17.65347515 8.82535573 C20.84437925 10.42673706 24.03992145 12.01881458 27.2348829 13.61208087 C32.859091 16.41837777 38.48028257 19.23064364 44.09957876 22.04676229 C52.5118394 26.26254012 60.92869052 30.46908958 69.34647719 34.67382032 C83.69097059 41.83931049 98.03165171 49.01240006 112.37029598 56.18958658 C126.90633682 63.46554225 141.44410976 70.73801992 155.98402546 78.00622934 C156.90144816 78.46483306 157.81887085 78.92343679 158.76409424 79.39593759 C163.44182237 81.7342333 168.11957851 84.07247299 172.79734421 86.41069356 C206.67966011 103.34720499 240.55806644 120.2915243 274.4343848 137.24002832 C307.99049099 154.02830659 341.5481591 170.81345595 375.10796497 187.5943374 C376.14966732 188.11522103 377.19136967 188.63610466 378.26463876 189.17277264 C387.77880885 193.93015388 397.29299602 198.68750096 406.8072047 203.44480503 C430.46007379 215.2717402 454.11268158 227.09919787 477.76510475 238.92702478 C478.84226604 239.46567858 479.91942734 240.00433238 481.02922988 240.55930902 C533.44548808 266.77105927 585.85869902 292.98890091 638.27173183 319.20709985 C711.16940097 355.67217853 784.06931722 392.13275936 856.97192715 428.58795923 C859.24060183 429.72241916 861.50927645 430.85687921 863.777951 431.9913394 C875.08995664 437.64795399 886.40196657 443.30456001 897.71397769 448.96116364 C899.38853121 449.79852907 899.38853121 449.79852907 901.0969141 450.65281098 C906.7244827 453.46689299 912.35205226 456.28097309 917.97962353 459.09504978 C989.5692651 494.89358862 1061.15723339 530.69547336 1132.7447695 566.49822235 C1136.93242033 568.5925721 1141.12007158 570.68692098 1145.30772327 572.78126901 C1146.34269935 573.29888619 1147.37767543 573.81650336 1148.44401443 574.3498059 C1163.13991721 581.69958334 1177.83590195 589.04919688 1192.53195163 596.39868058 C1237.7219339 618.998161 1282.9113892 641.59869374 1328.09884556 664.20322436 C1331.82082273 666.06509702 1335.54280221 667.92696505 1339.26478336 669.78882974 C1340.17826011 670.24578371 1341.09173686 670.70273768 1342.03289472 671.17353873 C1356.53767642 678.42931253 1371.04312182 685.68375844 1385.5488346 692.93767062 C1399.78816786 700.05841237 1414.02678356 707.18058715 1428.26461876 714.3043238 C1436.62744405 718.48851579 1444.99081757 722.67160741 1453.35498274 726.85312038 C1458.89518573 729.62298084 1464.43467314 732.39426855 1469.97355644 735.16676705 C1473.12281291 736.74308247 1476.27238975 738.31874874 1479.42284001 739.89267705 C1482.79444911 741.57750431 1486.16484289 743.26473723 1489.53491525 744.95263571 C1490.5232145 745.44576716 1491.51151374 745.93889861 1492.52976145 746.44697345 C1493.41672266 746.89184171 1494.30368386 747.33670997 1495.21752268 747.79505908 C1495.98703401 748.17996669 1496.75654533 748.5648743 1497.54937518 748.96144577 C1499.29590176 749.89752954 1499.29590176 749.89752954 1500.29590176 750.89752954 C1500.39378181 752.59146828 1500.42068533 754.28953112 1500.42057292 755.98629538 C1500.42410227 757.65583357 1500.42410227 757.65583357 1500.42770291 759.3590998 C1500.42519403 760.60060186 1500.42268516 761.84210393 1500.42010025 763.12122726 C1500.42137834 764.43288971 1500.42265643 765.74455215 1500.42397324 767.09596194 C1500.42741387 770.77626748 1500.4245426 774.45654633 1500.42073921 778.13685053 C1500.41769489 782.14072811 1500.42042859 786.14460226 1500.42244608 790.14847991 C1500.42519176 797.20604521 1500.42417719 804.26360246 1500.42078494 811.32116736 C1500.4157264 821.88661077 1500.41640813 832.45204838 1500.41825151 843.01749257 C1500.42122415 861.01970874 1500.41943649 879.02192167 1500.41510723 897.02413744 C1500.41073638 915.27947903 1500.4085338 933.53481894 1500.40900944 951.79016107 C1500.40905248 953.51664166 1500.40905248 953.51664166 1500.40909638 955.27800064 C1500.40925275 961.14639511 1500.4094447 967.01478958 1500.40964922 972.88318405 C1500.4110585 1015.41144535 1500.40761973 1057.93970517 1500.40163181 1100.46796602 C1500.39571403 1142.59859532 1500.39185766 1184.72922398 1500.390779 1226.85985368 C1500.39074459 1228.16714588 1500.39071018 1229.47443807 1500.39067472 1230.82134518 C1500.39036153 1242.76103781 1500.39007384 1254.70073045 1500.38981675 1266.6404231 C1500.38917726 1296.32424658 1500.38821836 1326.00807005 1500.38704155 1355.69189352 C1500.38701492 1356.3677067 1500.38698828 1357.04351988 1500.38696084 1357.73981224 C1500.38523288 1401.52067695 1500.3821849 1445.30154144 1500.37803314 1489.08240598 C1500.37793371 1490.13112268 1500.37793371 1490.13112268 1500.37783227 1491.20102557 C1500.37581153 1512.48410263 1500.37369316 1533.76717968 1500.3715557 1555.05025673 C1500.36919075 1578.60274122 1500.36684246 1602.15522571 1500.36456631 1625.70771021 C1500.36449781 1626.4159301 1500.36442931 1627.12415 1500.36435873 1627.85383111 C1500.3578598 1695.10344694 1500.35404814 1762.35306284 1500.35093252 1829.60267891 C1500.35080038 1832.45071026 1500.35066746 1835.29874162 1500.3505345 1838.14677297 C1500.34931111 1864.35473226 1500.34811928 1890.56269155 1500.34696709 1916.77065084 C1500.34693645 1917.46753674 1500.34690581 1918.16442264 1500.34687424 1918.88242629 C1500.34678147 1920.99240925 1500.34668872 1923.10239221 1500.34659597 1925.21237517 C1500.34409004 1982.21644541 1500.34130884 2039.22051564 1500.33834934 2096.22458587 C1500.33824498 2098.23591693 1500.33814084 2100.24724798 1500.33803676 2102.25857904 C1500.33178363 2223.06995142 1500.3224433 2343.88132349 1500.3117709 2464.69269556 C1500.31167096 2465.82418444 1500.31157103 2466.95567333 1500.31146806 2468.12144975 C1500.30646736 2524.71347637 1500.30129328 2581.30550296 1500.29590176 2637.89752954 C1454.18483281 2660.98056647 1408.07330137 2684.06267945 1361.9614291 2707.14411157 C1361.05914007 2707.59575508 1360.15685104 2708.04739858 1359.22721992 2708.51272825 C1262.57065727 2756.89443233 1165.91117304 2805.27029359 1069.24576138 2853.63431543 C1067.09924029 2854.70827323 1064.95271921 2855.78223102 1062.80619813 2856.85618883 C1017.7529012 2879.39744984 972.69919255 2901.93788784 927.64500805 2924.47737479 C905.01373498 2935.79923843 882.38254105 2947.12126027 859.75142193 2958.44343166 C856.33754334 2960.1513672 852.92366249 2961.85929822 849.50978154 2963.56722905 C796.92355003 2989.87564974 744.33902166 3016.18746743 691.75940273 3042.50910181 C690.62837962 3043.07529786 689.4973565 3043.64149391 688.33205995 3044.22484742 C670.09593436 3053.35397246 651.85995117 3062.48338195 633.62398687 3071.61282919 C581.11654326 3097.89955739 528.60805535 3124.18418991 476.09258793 3150.45488542 C475.01328119 3150.99480647 473.93397446 3151.53472751 472.82196146 3152.0910098 C449.13194215 3163.94184746 425.44138146 3175.79160245 401.7503075 3187.64033159 C392.21868791 3192.40744954 382.68714633 3197.17472343 373.15563152 3201.94205087 C372.1124289 3202.46381932 371.06922628 3202.98558777 369.99441145 3203.52316738 C336.34914766 3220.35128679 302.71025926 3237.19210425 269.07467201 3254.03955546 C235.2087351 3271.00231217 201.33662609 3287.95267343 167.45581083 3304.88569494 C162.77978679 3307.22269149 158.10383417 3309.55983091 153.42792461 3311.89705652 C152.51126553 3312.35523666 151.59460644 3312.8134168 150.6501698 3313.28548119 C136.10279978 3320.55725879 121.56222105 3327.84251094 107.02438908 3335.13333519 C92.74849917 3342.29244987 78.46560654 3349.43741833 64.17501062 3356.56713418 C55.78436194 3360.75385028 47.39943967 3364.95157432 39.02236335 3369.16538375 C33.46939455 3371.95726822 27.90939831 3374.73477717 22.34327742 3377.50034708 C19.18093661 3379.07209453 16.02214744 3380.65007525 12.87180473 3382.24575428 C9.49525823 3383.95583796 6.10394149 3385.63506023 2.71043287 3387.31125647 C1.73133218 3387.8133512 0.7522315 3388.31544592 -0.2565389 3388.83275564 C-6.79649898 3392.0174101 -6.79649898 3392.0174101 -10.70570125 3391.5010618 C-11.69517226 3390.97189615 -12.68464327 3390.44273051 -13.70409824 3389.89752954 C-15.27172108 3389.15379417 -16.83998739 3388.41141452 -18.40866916 3387.66991525 C-20.30548367 3386.72647039 -22.20009692 3385.77859222 -24.09298124 3384.82728654 C-25.14501024 3384.30255013 -26.19703925 3383.77781372 -27.28094792 3383.23717621 C-30.21008356 3381.7751495 -33.13739378 3380.30953951 -36.06398318 3378.84242455 C-39.25773834 3377.24248541 -42.4538176 3375.64720104 -45.64960259 3374.05132139 C-51.27408647 3371.24181678 -56.89706998 3368.42932762 -62.51909806 3365.61491221 C-70.91907416 3361.40986151 -79.32134648 3357.2094149 -87.72408606 3353.00988958 C-102.05154945 3345.84913428 -116.37710414 3338.68456808 -130.70164611 3331.51797074 C-145.3806956 3324.17403291 -160.06063917 3316.83188657 -174.74163224 3309.49183482 C-175.67519309 3309.02508137 -176.60875393 3308.55832793 -177.57060449 3308.07743044 C-182.33125339 3305.69725357 -187.09191647 3303.31710506 -191.85258466 3300.93696676 C-226.0093448 3283.85992104 -260.16421641 3266.77910122 -294.31802036 3249.69614404 C-340.49870061 3226.59763383 -386.68187351 3203.50411527 -432.8654752 3180.41144556 C-543.93886119 3124.86949622 -655.00876496 3069.32058331 -766.07909824 3013.77252954 C-1014.11534824 2889.73377954 -1262.15159824 2765.69502954 -1517.70409824 2637.89752954 C-1517.70409824 2015.18752954 -1517.70409824 1392.47752954 -1517.70409824 750.89752954 C-1507.57908735 745.27252349 -1507.57908735 745.27252349 -1503.64413393 743.30332113 C-1502.29075469 742.62423321 -1502.29075469 742.62423321 -1500.91003445 741.93142634 C-1499.94576174 741.45007188 -1498.98148903 740.96871743 -1497.98799594 740.47277647 C-1496.93698642 739.94613575 -1495.8859769 739.41949502 -1494.80311861 738.87689548 C-1491.89315414 737.41927043 -1488.9823112 735.96341758 -1486.07108312 734.50831842 C-1482.88946447 732.91752008 -1479.70900464 731.32440789 -1476.52839195 729.73159951 C-1470.93488186 726.93084507 -1465.3406314 724.131574 -1459.74589455 721.33327098 C-1451.37042646 717.14413351 -1442.9960917 712.95273427 -1434.621968 708.76091016 C-1419.46360375 701.17320566 -1404.30408193 693.58781615 -1389.14411734 686.00330967 C-1375.56448195 679.20942164 -1361.98530582 672.4146166 -1348.40652706 665.61901659 C-1347.49318034 665.16192696 -1346.57983361 664.70483733 -1345.63880971 664.2338965 C-1341.91895402 662.37227275 -1338.19909949 660.51064671 -1334.47924691 658.64901675 C-1284.15082801 633.46180849 -1233.81941981 608.28057587 -1183.48738588 583.10059252 C-1180.35599978 581.53402923 -1177.22461568 579.96746195 -1174.0932322 578.40089341 C-1092.41194677 537.53739294 -1010.72944364 496.67632656 -929.0443497 455.82043969 C-909.93840273 446.26434486 -890.83250184 436.70815792 -871.72662258 427.15192772 C-868.33924862 425.4576583 -864.95187293 423.76339233 -861.56449723 422.0691264 C-790.13485156 386.34205573 -718.71067886 350.60406118 -647.28977126 314.85952607 C-595.1573669 288.76845293 -543.02418938 262.67893096 -490.88532974 236.60075945 C-489.81378642 236.0648072 -488.74224309 235.52885496 -487.63822876 234.97666174 C-464.11895178 223.21309991 -440.59923166 211.45042436 -417.07909433 199.68858283 C-407.61653775 194.9565739 -398.1540404 190.22444654 -388.69156124 185.49228281 C-387.13812202 184.71541742 -387.13812202 184.71541742 -385.5533002 183.92285778 C-352.15778441 167.22189615 -318.76726999 150.51096403 -285.37932128 133.7948804 C-251.76807565 116.96706587 -218.1518434 100.14925872 -184.52862127 83.34538571 C-179.88818714 81.02623412 -175.24780969 78.70696915 -170.60746624 76.38763613 C-169.69778754 75.93296646 -168.78810884 75.4782968 -167.85086412 75.00984926 C-153.41560102 67.79454105 -138.9857601 60.56845693 -124.55811966 53.3379207 C-110.39003633 46.23773988 -96.21633791 39.14888137 -82.03648511 32.07223364 C-73.71150347 27.91710701 -65.39107044 23.75316898 -57.07693938 19.57637182 C-51.56534169 16.80857447 -46.04809862 14.052276 -40.52597935 11.30553098 C-37.38901109 9.74476769 -34.25482432 8.17900184 -31.12745069 6.59908879 C-27.77347681 4.9080136 -24.41039701 3.23666989 -21.04415305 1.57018763 C-19.58698565 0.82663927 -19.58698565 0.82663927 -18.10038052 0.06806972 C-10.84268506 -3.48401928 -7.32774895 -3.37383779 0 0 Z " fill="#EBEBEB" transform="translate(2508.7040982432663,803.1024704575539)"/>
<path d="M0 0 C0.33 0.66 0.66 1.32 1 2 C2.99894379 2.66982696 4.99929 3.33546712 7 4 C10.49196843 5.58820875 13.91026628 7.32208078 17.33758676 9.04459488 C18.90729761 9.82753317 18.90729761 9.82753317 20.50871978 10.62628839 C23.42224827 12.08051162 26.33395132 13.53831781 29.24493355 14.9976293 C32.42171106 16.58907971 35.60081273 18.17587516 38.77962009 19.76326602 C44.37417584 22.55780661 49.96723123 25.35533162 55.55933118 28.15478301 C63.91459066 32.33747548 72.27214641 36.51556371 80.63016939 40.69273075 C94.88139804 47.8153687 109.130718 54.94181749 123.37902522 62.07029748 C137.97992427 69.37516011 152.58171741 76.67823122 167.18456006 83.97920775 C168.11315602 84.44347875 169.04175197 84.90774975 169.9984872 85.38608957 C174.73381904 87.75360792 179.46916506 90.1210979 184.20451618 92.48857766 C218.1795138 109.47474213 252.15262289 126.46468067 286.12466431 143.45675659 C332.05957632 166.43238272 377.99698098 189.40301713 423.93481445 212.37280273 C534.41705462 267.61917915 644.89581255 322.87251915 755.375 378.125 C1002.09125 501.50375 1248.8075 624.8825 1503 752 C1503.33 1376.69 1503.66 2001.38 1504 2645 C1500.10575323 2643.70191774 1496.88093529 2642.56543696 1493.29542909 2640.77238571 C1492.39606977 2640.32505895 1491.49671045 2639.87773219 1490.57009783 2639.41685007 C1489.59363415 2638.92610935 1488.61717048 2638.43536864 1487.61111701 2637.929757 C1486.55902979 2637.40499148 1485.50694258 2636.88022596 1484.42297394 2636.33955846 C1481.49381058 2634.87751779 1478.56647247 2633.41189416 1475.6398554 2631.94476515 C1472.44712726 2630.34534013 1469.2520755 2628.75056897 1466.05731767 2627.15520316 C1460.43377425 2624.34616941 1454.81173194 2621.53414965 1449.19064422 2618.72020529 C1440.77572855 2614.50767673 1432.35851053 2610.29976446 1423.94082972 2606.09276462 C1409.59632799 2598.92348239 1395.25372787 2591.75040343 1380.91214752 2584.57527924 C1366.37356234 2577.30161241 1351.83410832 2570.0296866 1337.29358292 2562.75989914 C1336.37605974 2562.30116624 1335.45853656 2561.84243335 1334.51320965 2561.36979945 C1329.83496192 2559.03083196 1325.15669997 2556.69189293 1320.47843298 2554.35296395 C1286.59430632 2537.41230909 1252.7121183 2520.46777994 1218.83095169 2503.5212059 C1185.27122134 2486.73542099 1151.71066553 2469.95128828 1118.14899826 2453.16937637 C1116.58633562 2452.38799344 1116.58633562 2452.38799344 1114.99210404 2451.59082498 C1105.47728192 2446.83310073 1095.96244961 2442.07539688 1086.44760505 2437.31771751 C1062.793337 2425.48994404 1039.13919692 2413.66191465 1015.48514366 2401.83371162 C1014.40791541 2401.29504418 1013.33068715 2400.75637673 1012.22081561 2400.20138603 C959.80260009 2373.98965589 907.38585912 2347.7749775 854.96923828 2321.56005859 C836.77642121 2312.46135843 818.58359763 2303.36267129 800.39074707 2294.26403809 C799.26244546 2293.69975033 798.13414384 2293.13546257 796.97165127 2292.55407519 C744.5329843 2266.3283992 692.09327093 2240.10481586 639.65328703 2213.88177327 C636.24940887 2212.17963612 632.84553116 2210.47749808 629.44165354 2208.77535984 C606.88423383 2197.49533023 584.32679608 2186.2153367 561.76934624 2174.93536734 C516.88450315 2152.4904692 471.99976612 2130.045359 427.11510192 2107.60010313 C424.97751195 2106.5311689 422.8399219 2105.46223482 420.70233177 2104.39330089 C324.45631561 2056.26403865 228.21153335 2008.13230924 131.96728516 1959.99951172 C131.0659719 1959.54875515 130.16465864 1959.09799859 129.23603286 1958.63358274 C84.15727996 1936.08920569 39.07859646 1913.54468987 -6 1891 C-6.03300282 1833.28092517 -6.06461955 1775.5618496 -6.09521484 1717.84277344 C-6.09581363 1716.7133654 -6.09641242 1715.58395736 -6.09702935 1714.42032483 C-6.16078043 1594.10623203 -6.21607361 1473.79213888 -6.25343402 1353.47803479 C-6.25405936 1351.46541434 -6.25468598 1349.45279389 -6.25531302 1347.44017344 C-6.27307774 1290.41282439 -6.28967884 1233.38547505 -6.30472157 1176.35812521 C-6.3052783 1174.24752257 -6.30583512 1172.13691993 -6.30639198 1170.02631728 C-6.30657588 1169.32922228 -6.30675979 1168.63212728 -6.30694926 1167.91390819 C-6.31386755 1141.70189628 -6.32105175 1115.48988445 -6.32839465 1089.27787265 C-6.32919221 1086.4298692 -6.32998675 1083.58186575 -6.33077853 1080.7338623 C-6.34947428 1013.49462797 -6.3729554 946.25540023 -6.4119873 879.01617432 C-6.41260322 877.95428978 -6.41260322 877.95428978 -6.41323157 876.87095302 C-6.42689399 853.32881211 -6.44102034 829.78667148 -6.45521064 806.24453088 C-6.46803063 784.97344429 -6.48068406 763.70235761 -6.49278831 742.4312706 C-6.493186 741.73252331 -6.49358369 741.03377603 -6.49399343 740.31385458 C-6.51884926 696.5651656 -6.53649283 652.81647817 -6.54683876 609.06778336 C-6.54699946 608.39227222 -6.54716017 607.71676108 -6.54732574 607.02077991 C-6.55453528 576.69095305 -6.56008715 546.36112614 -6.5640059 516.03129869 C-6.56557569 504.10318439 -6.56737941 492.17507013 -6.56926346 480.24695587 C-6.56946402 478.94145177 -6.56966458 477.63594767 -6.56987122 476.29088285 C-6.57645666 434.1831408 -6.60210599 392.07543667 -6.63769325 349.96770994 C-6.67343619 307.57300143 -6.69060809 265.17832976 -6.68174393 222.78360579 C-6.68052534 216.93305541 -6.67952109 211.08250501 -6.67864609 205.23195457 C-6.6784668 204.08501981 -6.67828752 202.93808504 -6.67810281 201.75639467 C-6.67581357 183.55148998 -6.69377222 165.34666295 -6.72005917 147.14177945 C-6.74545768 129.26676759 -6.74969334 111.39185697 -6.73099088 93.51683563 C-6.72065781 83.02019966 -6.72698685 72.52388358 -6.75730201 62.02728454 C-6.77577312 55.07128342 -6.77280484 48.11551299 -6.75180644 41.15951936 C-6.74049143 37.20639949 -6.73882353 33.25390542 -6.76341147 29.30083188 C-6.78955238 25.06548982 -6.7698804 20.83164289 -6.74519098 16.59629321 C-6.76024424 15.36231778 -6.77529751 14.12834235 -6.79080693 12.85697372 C-6.68958404 4.82586947 -6.68958404 4.82586947 -4.61455019 2.34073786 C-2.95342556 1.21273167 -2.95342556 1.21273167 0 0 Z " fill="#C7C7C7" transform="translate(997,1550)"/>
<path d="M0 0 C1.88853931 0.93377754 3.77269474 1.87645173 5.6533833 2.82594199 C6.69979086 3.34627902 7.74619842 3.86661605 8.8243153 4.40272087 C11.73899752 5.85411202 14.64997614 7.31264369 17.55956783 8.77420499 C20.73350326 10.36634273 23.91207162 11.94918251 27.09005911 13.53321195 C32.68434365 16.3232274 38.27561251 19.11921261 43.8649856 21.91905349 C52.2324608 26.110471 60.60451394 30.29268089 68.97749566 34.4730852 C83.24567526 41.59714425 97.51003065 48.72882978 111.77233813 55.86463649 C126.23098777 63.09864594 140.69135988 70.32919506 155.15385936 77.55550487 C156.06640253 78.01146787 156.9789457 78.46743086 157.91914169 78.93721092 C161.6356203 80.79417955 165.35211099 82.65112399 169.06861708 84.50803761 C206.82409451 103.37218257 244.57441031 122.24663902 282.32274165 141.1250789 C287.54125356 143.73492132 292.75977344 146.34474784 297.97830151 148.95455796 C299.01476353 149.47289754 300.05122554 149.99123712 301.1190955 150.52528396 C324.0701151 162.0031083 347.02274355 173.47771362 369.97571606 184.95163198 C373.11535898 186.52110227 376.25499843 188.09057951 379.39463685 189.66005881 C387.81046577 193.8670606 396.22629873 198.07405429 404.64213895 202.28103347 C428.16918739 214.0419452 451.69595324 225.80342213 475.22249053 237.56535632 C476.29392018 238.10101038 477.36534984 238.63666443 478.46924706 239.18855042 C512.62077839 256.26243368 546.7710375 273.33886001 580.92045997 290.41696078 C582.02843028 290.97105522 583.13640059 291.52514965 584.27794577 292.09603483 C596.63359651 298.27508285 608.98922234 304.45418071 621.3448381 310.63329869 C623.0182037 311.47015889 623.0182037 311.47015889 624.72537466 312.32392536 C629.236871 314.58015222 633.7483673 316.83637915 638.25986207 319.09260914 C709.63909171 354.78984984 781.02296551 390.47778617 852.41094134 426.15753276 C870.40171236 435.14933615 888.39247101 444.14116425 906.38315223 453.13314731 C907.49081476 453.68677146 908.59847728 454.24039562 909.73970534 454.81079626 C943.85951879 471.86436441 977.97809922 488.92039729 1012.09536956 505.97905261 C1013.16595005 506.51434326 1014.23653054 507.0496339 1015.33955287 507.60114548 C1038.83720568 519.35001397 1062.33454742 531.09950448 1085.83160604 542.84956126 C1094.23842969 547.05351507 1102.64527187 551.2574318 1111.05212119 555.46133427 C1113.14363438 556.5072109 1115.23514631 557.55309007 1117.32665698 558.59897177 C1150.69831903 575.28680232 1184.07277857 591.96902883 1217.44857907 608.64858069 C1251.97978751 625.90561583 1286.50728142 643.17006201 1321.03053268 660.4430105 C1324.73268708 662.29526605 1328.43485744 664.14748967 1332.13704036 665.99968822 C1333.04565514 666.45427096 1333.95426993 666.90885371 1334.89041849 667.37721169 C1349.31581433 674.59405528 1363.74456446 681.80416615 1378.17469929 689.01152858 C1392.34114534 696.08736338 1406.50404005 703.17026202 1420.6631078 710.26085004 C1428.9788756 714.42495827 1437.29737361 718.58349691 1445.6198964 722.73408855 C1451.13333175 725.48441252 1456.64316557 728.24185521 1462.15001605 731.00534004 C1465.28050716 732.57604676 1468.41252688 734.14347846 1471.54899151 735.70222765 C1474.90640315 737.37283397 1478.25753529 739.05539593 1481.60725693 740.74135489 C1482.59028215 741.22683158 1483.57330737 741.71230826 1484.58612123 742.21249637 C1485.46837371 742.65971605 1486.35062618 743.10693574 1487.25961357 743.56770754 C1488.02502848 743.95043892 1488.79044338 744.33317031 1489.57905268 744.72749961 C1491.3169472 745.9089976 1491.3169472 745.9089976 1492.3169472 748.9089976 C1446.44525353 771.86409612 1400.57323622 794.81854786 1354.70098041 817.77252299 C1353.80338144 818.22167177 1352.90578247 818.67082055 1351.98098353 819.13357989 C1255.8275848 867.2476749 1159.67214114 915.3576802 1063.51254962 963.45939738 C1061.3772809 964.52751982 1059.24201219 965.59564226 1057.10674347 966.6637647 C1012.28970847 989.08251097 967.47238531 1011.50068112 922.65472911 1033.91818552 C900.14229537 1045.17876137 877.62991702 1056.43944796 855.11759104 1067.70023923 C851.72163059 1069.39891682 848.32566856 1071.09759125 844.92970646 1072.79626555 C792.61896044 1098.96235213 740.30940587 1125.13081706 688.00328754 1151.30615336 C686.878132 1151.86921028 685.75297646 1152.43226719 684.5937253 1153.01238644 C666.45218196 1162.09090169 648.31073826 1171.16961606 630.16930778 1180.24835686 C577.93459873 1206.3888156 525.69915823 1232.52780795 473.45883391 1258.65704352 C472.38520111 1259.1940473 471.31156831 1259.73105107 470.20540118 1260.28432769 C446.64003054 1272.0710926 423.07428095 1283.85709965 399.50817212 1295.64238858 C390.02685333 1300.38396369 380.54558913 1305.12564796 371.06434367 1309.86736972 C370.02664292 1310.38633709 368.98894216 1310.90530446 367.91979593 1311.43999812 C334.45095254 1328.17826119 300.98656767 1344.9254153 267.52449585 1361.67721101 C233.83378239 1378.54341869 200.13874496 1395.40095319 166.43761868 1412.24634582 C161.78658601 1414.57115132 157.13560335 1416.89605683 152.48465083 1419.22102267 C151.11699996 1419.90469123 151.11699996 1419.90469123 149.72171979 1420.60217128 C135.25087525 1427.83625827 120.78477605 1435.07978273 106.32060542 1442.32720301 C92.11773216 1449.44345701 77.90994689 1456.54981766 63.69678066 1463.64549222 C55.35113864 1467.81228662 47.00947004 1471.98680873 38.67332357 1476.17256892 C33.14813495 1478.94594074 27.61800362 1481.70926916 22.08360763 1484.46422114 C18.93897154 1486.02994125 15.79675341 1487.60006868 12.66050888 1489.18254012 C9.29858659 1490.87599052 5.9286444 1492.55223923 2.55598358 1494.22417415 C1.57964805 1494.72112299 0.60331252 1495.21807182 -0.40260894 1495.73007972 C-1.297261 1496.16917061 -2.19191305 1496.6082615 -3.11367577 1497.06065817 C-3.88143471 1497.44476166 -4.64919364 1497.82886515 -5.44021799 1498.22460814 C-9.79532457 1499.55354643 -13.34490195 1497.76556841 -17.24716846 1495.81394652 C-18.14064333 1495.37073843 -19.0341182 1494.92753034 -19.95466806 1494.4708917 C-21.41719361 1493.73398396 -21.41719361 1493.73398396 -22.90926512 1492.98218919 C-23.95590768 1492.46078504 -25.00255024 1491.93938088 -26.08090924 1491.40217661 C-29.00018313 1489.94635678 -31.91669189 1488.48515863 -34.83214537 1487.02170749 C-38.01085302 1485.4277684 -41.19303846 1483.84079998 -44.37478887 1482.25294606 C-49.97710599 1479.45589728 -55.57716305 1476.65436495 -61.17579645 1473.84995055 C-69.55711774 1469.65168832 -77.941885 1465.46034425 -86.32735308 1461.2703721 C-100.616464 1454.13027108 -114.90271863 1446.98447217 -129.18744733 1439.83560855 C-143.6695456 1432.58799931 -158.15294504 1425.343 -172.63795354 1418.10120875 C-173.55178838 1417.64433437 -174.46562322 1417.18745999 -175.40715002 1416.71674093 C-180.06654903 1414.38727598 -184.72596939 1412.05785372 -189.38539729 1409.72844655 C-223.13777989 1392.85436825 -256.88725297 1375.97447766 -290.63519551 1359.09152133 C-324.06411124 1342.36818459 -357.49426424 1325.6473253 -390.92608525 1308.92979724 C-391.96373792 1308.41091929 -393.00139058 1307.89204134 -394.07048726 1307.35743982 C-403.54762497 1302.61840117 -413.02477799 1297.87939313 -422.50194936 1293.14042181 C-446.06281249 1281.35903106 -469.62348365 1269.57725644 -493.18402459 1257.7952214 C-494.25700744 1257.25865 -495.32999028 1256.7220786 -496.43548776 1256.16924746 C-548.65015934 1230.05797788 -600.8626189 1203.94228614 -653.0748985 1177.82623393 C-671.19733537 1168.76157806 -689.319782 1159.69694172 -707.44226911 1150.63238627 C-708.56620319 1150.07021381 -709.69013727 1149.50804135 -710.84812996 1148.92883335 C-763.08147179 1122.80264911 -815.31638297 1096.67960324 -867.5517001 1070.55736858 C-870.94219326 1068.86182491 -874.33268575 1067.16627988 -877.72317809 1065.47073457 C-900.19184899 1054.23441948 -922.66054696 1042.99815851 -945.12926305 1031.7619338 C-989.83774118 1009.40397983 -1034.54606024 987.04570777 -1079.25427004 964.68721724 C-1081.38346809 963.62240935 -1083.51266624 962.55760169 -1085.64186451 961.49279426 C-1181.51297053 913.54785972 -1277.3822256 865.59922467 -1373.25067975 817.64898784 C-1374.14849489 817.19993037 -1375.04631002 816.7508729 -1375.97133168 816.28820762 C-1420.87535163 793.82869671 -1465.7792675 771.36897767 -1510.6830528 748.9089976 C-1510.6830528 748.2489976 -1510.6830528 747.5889976 -1510.6830528 746.9089976 C-1464.81669108 723.95381474 -1418.94995943 700.99937111 -1373.08295514 678.04547221 C-1372.18545597 677.59632344 -1371.2879568 677.14717466 -1370.36326068 676.68441531 C-1274.21897854 628.56953567 -1178.07235897 580.45933067 -1081.92099835 532.35859782 C-1079.78586909 531.29047539 -1077.65073982 530.22235295 -1075.51561056 529.15423051 C-1030.70132496 506.73539764 -985.88670999 484.31722322 -941.07171438 461.89980968 C-918.56055712 450.63924937 -896.04946317 439.3785625 -873.53842907 428.11775597 C-870.14266726 426.41907807 -866.74690364 424.72040379 -863.35113994 423.02172965 C-811.04456204 396.8561969 -758.73934602 370.68794634 -706.43805768 344.51184184 C-705.31303904 343.94878493 -704.1880204 343.38572801 -703.02891029 342.80560877 C-684.88961982 333.72711375 -666.75044326 324.64839115 -648.61128181 315.56963835 C-596.38196577 289.42857489 -544.15181367 263.2891881 -491.9160793 237.16095168 C-490.84250003 236.62394791 -489.76892077 236.08694413 -488.6628088 235.53366752 C-465.09839103 223.74679621 -441.53354015 211.96079106 -417.9682787 200.17560662 C-408.4872459 195.43404369 -399.00627549 190.69235601 -389.52532651 185.95062549 C-388.48765918 185.43165811 -387.44999185 184.91269074 -386.38088006 184.37799708 C-352.91526889 167.64080164 -319.4547546 150.89344638 -285.99688365 134.1407842 C-252.30931968 117.27317056 -218.61681387 100.41547359 -184.91734826 83.57164938 C-180.2661373 81.24685628 -175.61498348 78.92194888 -170.96386411 76.59697253 C-169.59616842 75.91330397 -169.59616842 75.91330397 -168.20084251 75.21582392 C-153.73178373 67.98282034 -139.26815069 60.73903476 -124.80672088 53.49079219 C-110.60517899 46.37308366 -96.39802411 39.2666917 -82.18471806 32.17250298 C-73.83989189 28.00697536 -65.49961666 23.83263217 -57.16564617 19.64542628 C-51.64082493 16.87069247 -46.11035775 14.10745679 -40.5750143 11.35377406 C-37.43050008 9.78905265 -34.28876756 8.21932758 -31.15384972 6.63545508 C-27.79178917 4.94013562 -24.42062005 3.26454714 -21.04628767 1.59382106 C-20.07246102 1.09687222 -19.09863436 0.59992338 -18.0952978 0.08791549 C-10.84103977 -3.46310015 -7.32673755 -3.37009649 0 0 Z " fill="#F8F8F8" transform="translate(2508.6830527968705,803.0910023972392)"/>
<path d="M0 0 C3.05171624 1.52316659 6.09289793 3.06415791 9.12958807 4.61688318 C12.46986052 6.31463374 15.83110834 7.96995519 19.18972657 9.63102556 C25.0859335 12.55427538 30.96833169 15.50388806 36.84241297 18.47133026 C45.63589469 22.91340175 54.44994433 27.31344079 63.26840571 31.70566942 C78.29854327 39.19326446 93.31146473 46.71479099 108.31527997 54.25497339 C123.51700017 61.89443966 138.72648821 69.51810797 153.94571019 77.12265108 C154.90739293 77.60318398 155.86907568 78.08371689 156.85990032 78.57881139 C161.76366803 81.02903221 166.66756322 83.47899779 171.57150314 85.92887392 C207.05600968 103.65663581 242.52298577 121.41922971 277.98074056 139.20042895 C313.09464837 156.80907597 348.215884 174.40296833 383.34708501 191.97708986 C384.98384226 192.79587849 384.98384226 192.79587849 386.65366532 193.63120831 C396.61990676 198.61681764 406.58623674 203.60224996 416.55267398 208.58746788 C441.3278882 220.98005127 466.10194449 233.37494831 490.87520791 245.77143095 C492.00331415 246.33593044 493.13142038 246.90042994 494.29371166 247.48203548 C549.16581381 274.94005562 604.02452292 302.42479738 658.88221265 329.91159723 C677.91827421 339.44972341 696.95439812 348.98772512 715.99079419 358.52518366 C716.58107767 358.8209231 717.17136115 359.11666254 717.779532 359.42136378 C773.26141274 387.21842636 828.75330251 414.99547528 884.24788057 442.76717892 C887.81195453 444.55078418 891.3760245 446.33439741 894.94009363 448.11801232 C916.21182509 458.76329686 937.48365634 469.40838198 958.75559093 480.0532606 C1009.22350466 505.30839211 1059.68985981 530.56663724 1110.15526868 555.82677363 C1111.26228648 556.38088415 1112.36930428 556.93499466 1113.50986807 557.50589641 C1207.56842605 604.58638531 1301.62104329 651.6787308 1395.66395071 698.79047434 C1409.91512038 705.92972349 1424.16680518 713.06794348 1438.41878415 720.20557688 C1454.25033262 728.13429887 1470.08117624 736.06442604 1485.91100501 743.99658091 C1493.89215236 747.99580977 1501.87359655 751.99444313 1509.85592117 755.99132178 C1516.42467438 759.2804044 1522.99277569 762.57078387 1529.55995344 765.86301113 C1532.85566602 767.51515467 1536.15169684 769.1666548 1539.44859808 770.81642526 C1542.97698843 772.58205295 1546.50385193 774.35071534 1550.03054578 776.11972944 C1551.06489364 776.63671215 1552.0992415 777.15369486 1553.16493324 777.68634371 C1554.09300579 778.15250687 1555.02107835 778.61867004 1555.97727431 779.09895936 C1556.78254974 779.50239284 1557.58782517 779.90582632 1558.41750288 780.32148505 C1560.23939038 781.296607 1560.23939038 781.296607 1561.23939038 782.296607 C1561.33744046 784.07482783 1561.36417382 785.85699621 1561.36406155 787.63791819 C1561.36759089 789.39221359 1561.36759089 789.39221359 1561.37119154 791.18194929 C1561.36868266 792.48673967 1561.36617378 793.79153005 1561.36358888 795.13585953 C1561.36445339 796.52810983 1561.36575671 797.92035991 1561.36746187 799.31260943 C1561.3709027 803.18020223 1561.36803109 807.04776964 1561.36422783 810.91536118 C1561.36118365 815.12290458 1561.36391718 819.33044473 1561.36593471 823.5379882 C1561.36868045 830.95463081 1561.36766575 838.37126577 1561.36427357 845.78790801 C1561.35921513 856.89090485 1561.35989673 867.99389618 1561.36174014 879.09689375 C1561.36471281 898.01501514 1561.36292508 916.93313344 1561.35859586 935.85125445 C1561.35422503 955.03542902 1561.35202243 974.21960201 1561.35249806 993.4037771 C1561.3525411 995.21808917 1561.3525411 995.21808917 1561.35258501 997.06905401 C1561.35274138 1003.23599017 1561.35293333 1009.40292633 1561.35313785 1015.5698625 C1561.35454713 1060.26185967 1561.35110836 1104.95385543 1561.34512044 1149.64585207 C1561.3436413 1160.70503177 1561.34217997 1171.76421147 1561.34078432 1182.82339118 C1561.34065417 1183.85456128 1561.34065417 1183.85456128 1561.34052139 1184.9065631 C1561.33652608 1216.7340369 1561.33509279 1248.56151065 1561.33431835 1280.38898467 C1561.33426759 1282.46980282 1561.33421562 1284.55062096 1561.33416335 1286.63143911 C1561.33384926 1299.17857105 1561.33356189 1311.72570298 1561.33330537 1324.27283492 C1561.33266648 1355.46685228 1561.33170699 1386.66086964 1561.33053018 1417.85488699 C1561.33050354 1418.56508312 1561.33047691 1419.27527924 1561.33044947 1420.00699646 C1561.32872151 1466.01533795 1561.32567352 1512.02367923 1561.32152177 1558.03202055 C1561.32142234 1559.13409514 1561.32142234 1559.13409514 1561.32132089 1560.25843387 C1561.31930015 1582.62438122 1561.31718179 1604.99032857 1561.31504433 1627.35627591 C1561.31267938 1652.10709753 1561.31033108 1676.85791916 1561.30805493 1701.60874079 C1561.30798643 1702.35299444 1561.30791793 1703.09724808 1561.30784736 1703.86405487 C1561.30134844 1774.53518251 1561.29753677 1845.20631022 1561.29442115 1915.87743808 C1561.29428901 1918.87036808 1561.29415608 1921.86329808 1561.29402313 1924.85622807 C1561.29279974 1952.39756216 1561.29160791 1979.93889625 1561.29045571 2007.48023035 C1561.29042507 2008.21257146 1561.29039443 2008.94491257 1561.29036286 2009.69944584 C1561.2902701 2011.91677765 1561.29017735 2014.13410945 1561.2900846 2016.35144125 C1561.28757867 2076.25569943 1561.28479747 2136.1599576 1561.28183796 2196.06421576 C1561.28173361 2198.17787738 1561.28162947 2200.29153901 1561.28152539 2202.40520064 C1561.27814384 2271.06119997 1561.27426638 2339.71719925 1561.25525952 2583.27927302 C1561.25515959 2584.46833081 1561.25505965 2585.6573886 1561.25495669 2586.88247844 C1561.24995599 2646.35385464 1561.24478191 2705.82523083 1561.23939038 2765.296607 C1530.08896018 2780.87457146 1498.93848461 2796.45244517 1467.78797437 2812.03024958 C1467.17836564 2812.33510384 1466.56875691 2812.6399581 1465.94067519 2812.95405038 C1400.59761161 2845.63092766 1335.25425426 2878.3072174 1269.91030408 2910.98232172 C1268.45820665 2911.70844016 1267.00610922 2912.4345586 1265.55401179 2913.16067704 C1235.07152955 2928.40337963 1204.58900606 2943.64599971 1174.10643495 2958.88852456 C1158.79315553 2966.54578695 1143.47988403 2974.20306518 1128.16662002 2981.8603584 C1125.85672726 2983.0154044 1123.54683428 2984.17044995 1121.23694129 2985.32549549 C1085.68403377 3003.10347854 1050.13129582 3020.88180061 1014.57905103 3038.66110895 C1013.81512736 3039.04313924 1013.05120369 3039.42516952 1012.26413082 3039.81877648 C999.94807074 3045.97791265 987.63202494 3052.13707738 975.31598103 3058.2962459 C939.8253334 3076.04487317 904.33457958 3093.79328795 868.84312821 3111.54030798 C868.11267533 3111.90556119 867.38222244 3112.2708144 866.62963462 3112.64713589 C850.59118887 3120.66694176 834.55268886 3128.68663914 818.51413755 3136.70623391 C812.05994492 3139.93346102 805.6057601 3143.16070375 799.15157796 3146.38795183 C798.44521279 3146.74115113 797.73884763 3147.09435043 797.01107746 3147.45825273 C774.2834801 3158.82259887 751.55651724 3170.18821323 728.8298896 3181.5544985 C705.92059228 3193.01213518 683.01066764 3204.46851644 660.09988055 3215.92317391 C656.92762828 3217.50919852 653.75538313 3219.0952374 650.58314229 3220.68128489 C649.96133942 3220.99217138 649.33953654 3221.30305788 648.69889115 3221.62336518 C638.8871438 3226.52904917 629.07606736 3231.43607338 619.26527609 3236.34366908 C609.59756274 3241.1796588 599.9291102 3246.01416796 590.25994158 3250.84724731 C585.09596753 3253.4284822 579.93230382 3256.01033241 574.76953465 3258.59397646 C539.16231399 3276.41230126 539.16231399 3276.41230126 523.91732623 3283.63619103 C513.53560378 3288.55921112 503.27520538 3293.72249106 493.00669385 3298.87637995 C490.76310781 3300.00046793 488.51942555 3301.12436386 486.27565683 3302.24808715 C481.44390875 3304.66841178 476.61278559 3307.0899766 471.78223325 3309.51268671 C464.59944598 3313.1151021 457.41540586 3316.71501363 450.23106598 3320.31433147 C441.0751421 3324.9014146 431.91943265 3329.48892528 422.76430965 3334.07760666 C402.56219427 3344.20316067 382.35761967 3354.32379203 362.1511647 3364.44068317 C359.85186547 3365.59189022 357.55257405 3366.74311287 355.25328516 3367.89434059 C348.26979944 3371.39089033 341.28629507 3374.88740282 334.30277141 3378.3838768 C317.55697436 3386.76807765 300.81132628 3395.15257594 284.06605054 3403.53781794 C283.26599567 3403.93844447 282.46594079 3404.33907101 281.64164183 3404.75183775 C255.63601223 3417.77419959 229.63443208 3430.80462502 203.63468759 3443.83873213 C176.87019878 3457.25615435 150.10110054 3470.66433752 123.32635491 3484.06128119 C119.54967883 3485.95097786 115.77305873 3487.84078636 111.99647428 3489.73066614 C110.88168232 3490.28852597 110.88168232 3490.28852597 109.74436932 3490.85765568 C97.77480579 3496.84777349 85.81021088 3502.84775115 73.84747724 3508.85149509 C61.84552421 3514.87468227 49.83858407 3520.88782619 37.82640647 3526.89059718 C30.68644432 3530.45899948 23.55053151 3534.03523382 16.42008721 3537.62261838 C11.10629562 3540.29496512 5.78533122 3542.95278663 0.46138945 3545.60485996 C-1.69859926 3546.68371579 -3.85619439 3547.767379 -6.01120019 3548.85615404 C-8.92663222 3550.32827011 -11.85005241 3551.78309521 -14.77623652 3553.2336912 C-16.04619199 3553.88267514 -16.04619199 3553.88267514 -17.34180312 3554.54476987 C-18.1211917 3554.92672674 -18.90058028 3555.30868361 -19.70358669 3555.70221494 C-20.37149707 3556.03682793 -21.03940745 3556.37144092 -21.72755754 3556.7161937 C-25.96133635 3557.92488951 -29.77613094 3555.97630004 -33.54570247 3554.09106732 C-34.48862584 3553.62313498 -35.43154922 3553.15520263 -36.40304603 3552.67309052 C-37.43343353 3552.15413346 -38.46382103 3551.63517639 -39.5254324 3551.10049335 C-41.18280223 3550.27468414 -41.18280223 3550.27468414 -42.87365429 3549.43219192 C-45.95678656 3547.89444416 -49.03712467 3546.35132852 -52.11643306 3544.8059515 C-55.47442909 3543.12236853 -58.83590281 3541.44575523 -62.19694144 3539.76825713 C-68.11444055 3536.81361697 -74.02968079 3533.85449367 -79.9434961 3530.89248763 C-88.77946162 3526.46691628 -97.61886367 3522.04824293 -106.45897314 3517.63095616 C-121.53157787 3510.09912016 -136.60131561 3502.56156412 -151.66953813 3495.02096544 C-167.11212979 3487.29305149 -182.55606046 3479.56782265 -198.00156723 3471.84573661 C-198.98350876 3471.35480631 -199.96545029 3470.86387601 -200.97714762 3470.35806904 C-205.9844568 3467.85463581 -210.99178726 3465.35124513 -215.99912538 3462.84786976 C-251.93157969 3444.88364446 -287.86119968 3426.91375685 -323.78921985 3408.94066523 C-372.36889603 3384.63857369 -420.95230823 3360.34396785 -469.53636645 3336.05063532 C-586.38521492 3277.61832602 -703.22884004 3219.17557193 -820.07310962 3160.734107 C-1080.99998462 3030.239732 -1341.92685962 2899.745357 -1610.76060962 2765.296607 C-1610.76060962 2110.906607 -1610.76060962 1456.516607 -1610.76060962 782.296607 C-1588.9366393 770.81030683 -1588.9366393 770.81030683 -1579.43160861 766.05965124 C-1578.32764336 765.50591149 -1577.2236781 764.95217175 -1576.08625936 764.38165201 C-1573.07416903 762.87129132 -1570.06124706 761.36261461 -1567.04792874 759.85470696 C-1563.7378664 758.19775913 -1560.42894031 756.53854472 -1557.11985495 754.87964688 C-1550.55381427 751.58842363 -1543.9867445 748.29925881 -1537.41934371 745.01075057 C-1529.48979529 741.04005401 -1521.56135258 737.06715173 -1513.63291762 733.09423251 C-1497.90031139 725.21076943 -1482.16654212 717.32962971 -1466.43229829 709.44943565 C-1452.34359103 702.39337001 -1438.25531672 695.33644076 -1424.16739558 688.27880572 C-1331.16808823 641.68912729 -1238.15891864 595.11915138 -1145.14404773 548.56055353 C-1144.04855486 548.01220437 -1142.95306199 547.4638552 -1141.82437237 546.89888939 C-1091.94090079 521.92975345 -1042.05636531 496.96274387 -992.17040488 471.99858078 C-971.17426358 461.49159009 -950.17825199 450.98434021 -929.18231811 440.47693505 C-925.66573669 438.71706565 -922.14915127 436.95720423 -918.63256574 435.19734303 C-844.48107696 398.08840025 -770.34132282 360.9560877 -696.20830024 323.81027013 C-642.07978477 296.68811808 -587.94944616 269.56963527 -533.80643271 242.47643374 C-532.69324698 241.91939262 -531.58006125 241.36235149 -530.43314262 240.78843034 C-505.99761199 228.56091288 -481.56109634 216.3353653 -457.12364979 204.11167741 C-447.29170489 199.19366629 -437.45989729 194.27538071 -427.62813472 189.3570051 C-426.55212538 188.81873611 -425.47611605 188.28046712 -424.36750037 187.72588695 C-389.70065173 170.38377988 -355.04520073 153.01903984 -320.39562804 135.6424445 C-285.50728088 118.14624282 -250.60776144 100.67254941 -215.69253474 83.23004428 C-210.86905302 80.82038422 -206.0456993 78.41046805 -201.22242259 76.00039766 C-200.27692388 75.52796739 -199.33142516 75.05553713 -198.35727497 74.56879079 C-183.38146496 67.08510882 -168.41790548 59.5772643 -153.45929169 52.05927917 C-138.75342427 44.66894424 -124.03492112 37.30432627 -109.30256356 29.96693557 C-100.6643541 25.66374421 -92.03656404 21.34111468 -83.42286067 16.98906923 C-77.69969367 14.09992282 -71.96384239 11.23715045 -66.21701328 8.39536436 C-62.96042012 6.7840796 -59.71041234 5.16234997 -56.47556047 3.50778922 C-34.58169381 -7.67061358 -22.51822016 -10.87369418 0 0 Z M-31.1958001 78.26462358 C-32.08597163 78.70495075 -32.97614316 79.14527792 -33.89328959 79.59894834 C-35.35798362 80.33873338 -35.35798362 80.33873338 -36.85226743 81.09346358 C-37.89651383 81.61296849 -38.94076023 82.1324734 -40.01665045 82.66772089 C-42.93461383 84.12143194 -45.84885487 85.58231938 -48.76172387 87.04620362 C-51.93575309 88.63913418 -55.114408 90.22278516 -58.29249074 91.80760832 C-63.89009307 94.60059555 -69.48467074 97.39956777 -75.07736106 100.20237697 C-83.44994123 104.39830505 -91.8271031 108.585022 -100.20520653 112.76990852 C-114.48158451 119.90133715 -128.75414563 127.0403742 -143.02467441 134.18349932 C-157.4938357 141.42601274 -171.96472685 148.66505258 -186.43776225 155.89982126 C-187.35066407 156.35616455 -188.2635659 156.81250784 -189.20413141 157.28267971 C-193.85876092 159.60942611 -198.51341844 161.93611648 -203.16808552 164.26278774 C-236.89267155 181.12043293 -270.61334594 197.9858901 -304.33193492 214.85552691 C-337.73897558 231.56927209 -371.14757792 248.27988884 -404.55831813 264.98623751 C-405.59535051 265.50478615 -406.63238289 266.02333479 -407.7008405 266.55759703 C-417.17246281 271.29370439 -426.64410221 276.02977758 -436.11576311 280.76580776 C-459.66393165 292.54039267 -483.21183888 304.3155001 -506.75956153 316.0909767 C-507.83199502 316.6272666 -508.90442851 317.1635565 -510.00935999 317.71609761 C-562.20254105 343.81630976 -614.39267501 369.92261298 -666.5826311 396.02927302 C-739.14827126 432.32833152 -811.7161545 468.62290025 -884.28673266 504.91208552 C-886.54433079 506.04100716 -888.80192885 507.16992894 -891.05952685 508.29885085 C-902.31645573 513.92792707 -913.57338889 519.55699471 -924.83032326 525.18605995 C-925.94128355 525.74159921 -927.05224383 526.29713847 -928.19686958 526.86951225 C-933.79724057 529.66999545 -939.3976125 532.47047674 -944.99798614 535.27095461 C-1016.27784776 570.91460532 -1087.55603689 606.56160033 -1158.83379446 642.20945836 C-1163.00387244 644.29502166 -1167.17395084 646.38058412 -1171.34402965 648.46614574 C-1172.88989953 649.23927437 -1172.88989953 649.23927437 -1174.46699909 650.02802176 C-1189.09374017 657.34321756 -1203.72056282 664.65825025 -1218.34745025 671.97315342 C-1263.33248246 694.47016153 -1308.31698506 716.96822722 -1353.29949726 739.47027374 C-1357.00847998 741.32564914 -1360.71746499 743.18101994 -1364.42645167 745.03638743 C-1365.33672164 745.491738 -1366.24699162 745.94708858 -1367.18484553 746.41623766 C-1381.61628665 753.6353361 -1396.04838789 760.8531138 -1410.48075758 768.07035564 C-1424.66161154 775.16185995 -1438.84174565 782.25480185 -1453.02110647 789.34929119 C-1461.34078321 793.51190041 -1469.6610006 797.67342442 -1477.9820146 801.83335984 C-1483.50384764 804.59403414 -1489.02495852 807.35614888 -1494.54547704 810.11945088 C-1497.67774813 811.68726276 -1500.81032632 813.25445206 -1503.94379146 814.81987631 C-1507.31085119 816.50241814 -1510.67667885 818.18739975 -1514.04220598 819.8730046 C-1515.00671496 820.35424092 -1515.97122394 820.83547724 -1516.96496046 821.33129648 C-1517.8674245 821.78391616 -1518.76988854 822.23653583 -1519.69969997 822.70287126 C-1520.46581087 823.08607865 -1521.23192178 823.46928605 -1522.02124817 823.86410579 C-1525.97530452 825.93181048 -1529.86006888 828.12963992 -1533.76060962 830.296607 C-1533.76060962 1453.006607 -1533.76060962 2075.716607 -1533.76060962 2717.296607 C-1160.71623462 2903.973482 -1160.71623462 2903.973482 -780.13560962 3094.421607 C-701.46203052 3133.80391657 -622.78845141 3173.18622614 -541.73082446 3213.76193903 C-471.52092825 3248.88360386 -471.52092825 3248.88360386 -401.30836963 3283.99994562 C-368.87013976 3300.22389467 -336.43797202 3316.45988265 -304.00928598 3332.70289609 C-269.84647141 3349.81441887 -235.67726179 3366.9131017 -201.4995885 3383.99492873 C-196.74120733 3386.37314802 -191.98289754 3388.7515101 -187.22463058 3391.1299579 C-186.29202732 3391.59611863 -185.35942406 3392.06227936 -184.39856009 3392.54256617 C-169.72567648 3399.87724761 -155.05947629 3407.22518802 -140.39614248 3414.57893944 C-126.14020372 3421.72804232 -111.87729424 3428.86306255 -97.60664836 3435.98276433 C-89.22898101 3440.16296865 -80.85706375 3444.35422749 -72.49296238 3448.56151249 C-66.93871985 3451.35403703 -61.37744652 3454.13217946 -55.81005216 3456.89838999 C-52.64690516 3458.47054253 -49.48730687 3460.04892282 -46.3361589 3461.64500877 C-42.95972995 3463.3550328 -39.56853165 3465.03419706 -36.17514073 3466.71033393 C-35.19604653 3467.21242541 -34.21695233 3467.71451689 -33.20818861 3468.23182327 C-28.20456741 3470.75340027 -28.20456741 3470.75340027 -22.75900661 3470.90013925 C-21.7695356 3470.37097361 -20.78006459 3469.84180797 -19.76060962 3469.296607 C-18.19298678 3468.55287163 -16.62472047 3467.81049198 -15.0560387 3467.06899271 C-13.15922419 3466.12554784 -11.26461094 3465.17766967 -9.37172662 3464.226364 C-8.31969762 3463.70162759 -7.26766861 3463.17689118 -6.18375994 3462.63625366 C-3.2546243 3461.17422695 -0.32731408 3459.70861697 2.59927532 3458.24150201 C5.79303048 3456.64156287 8.98910974 3455.0462785 12.18489473 3453.45039885 C17.80937861 3450.64089424 23.43236212 3447.82840507 29.0543902 3445.01398967 C37.4543663 3440.80893896 45.85663862 3436.60849235 54.2593782 3432.40896704 C68.58684159 3425.24821174 82.91239628 3418.08364553 97.23693825 3410.9170482 C111.91598774 3403.57311037 126.59593131 3396.23096402 141.27692438 3388.89091228 C142.67726565 3388.19078211 142.67726565 3388.19078211 144.10589663 3387.4765079 C148.86654553 3385.09633103 153.62720861 3382.71618252 158.3878768 3380.33604422 C192.54463694 3363.2589985 226.69950855 3346.17817868 260.8533125 3329.0952215 C307.03399275 3305.99671128 353.21716565 3282.90319273 399.40076734 3259.81052302 C510.47415333 3204.26857367 621.5440571 3148.71966076 732.61439038 3093.171607 C980.65064038 2969.132857 1228.68689038 2845.094107 1484.23939038 2717.296607 C1484.23939038 2094.586607 1484.23939038 1471.876607 1484.23939038 830.296607 C1468.8461267 822.17690281 1468.8461267 822.17690281 1453.34312208 814.28407226 C1452.2860275 813.75463747 1451.22893293 813.22520268 1450.13980519 812.67972441 C1447.25942664 811.23760563 1444.37819073 809.79721839 1441.49654929 808.35762531 C1438.32969576 806.77498152 1435.16401679 805.18999116 1431.99817501 803.60532479 C1426.44628166 800.82671126 1420.89366058 798.04955655 1415.34054555 795.27338543 C1407.02756138 791.11746457 1398.7157293 786.95924343 1390.40410659 782.80060053 C1376.23478189 775.71119828 1362.06450823 768.62369472 1347.89370633 761.53724573 C1333.54140427 754.36002859 1319.18953004 747.18195699 1304.83817006 740.00285624 C1303.93043486 739.54877333 1303.02269966 739.09469042 1302.08745734 738.62684743 C1298.39019525 736.77733717 1294.6929354 734.92782242 1290.99567861 733.07830156 C1246.2451157 710.69223895 1201.49242186 688.31043797 1156.739347 665.92939763 C1142.23239877 658.67445579 1127.72553748 651.4193401 1113.21873451 644.16410778 C1112.19483516 643.65202896 1111.17093581 643.13995014 1110.1160092 642.61235378 C1105.97342022 640.54053616 1101.83083168 638.46871767 1097.68824368 636.3968981 C1026.85455851 600.971077 956.02035808 565.54628632 885.1845654 530.12467945 C879.62485783 527.34453368 874.06515292 524.56438259 868.50544784 521.78423186 C867.4025918 521.23274478 866.29973575 520.6812577 865.16345983 520.11305889 C853.99016571 514.52581314 842.81687387 508.93856284 831.64358555 503.35130548 C829.40332746 502.23105382 827.1630691 501.11080271 824.92281045 499.99055215 C752.9046474 463.977572 680.88940847 427.95875014 608.87618198 391.9358997 C557.11106623 366.04167399 505.3455951 340.14816033 453.57723428 314.26042269 C452.51341441 313.72843925 451.44959455 313.1964558 450.35353772 312.64835165 C427.00461122 300.97229629 403.65545816 289.2966941 380.30609319 277.62151561 C370.91267215 272.92459772 361.51927914 268.22762376 352.1258936 263.53063486 C351.09785012 263.01658279 350.06980665 262.50253071 349.01061033 261.97290131 C315.86110442 245.39713932 282.71404856 228.81648491 249.56823813 212.23333462 C216.20882645 195.54335414 182.84689687 178.85841835 149.48146061 162.18048474 C144.877481 159.87915422 140.27352949 157.57776747 135.66959477 155.27634714 C134.76705655 154.82518796 133.86451833 154.37402877 132.93463047 153.90919809 C118.60950576 146.74819651 104.28708445 139.58180505 89.96576596 132.41319496 C75.90443386 125.37486088 61.84028659 118.34218067 47.77306746 111.31561983 C39.51307488 107.18954674 31.25533042 103.05904909 23.00075649 98.92214576 C17.5304393 96.18115453 12.05728424 93.44589184 6.58170513 90.7154274 C3.47021602 89.16363955 0.36006897 87.60930866 -2.74663019 86.04795023 C-6.0756702 84.37649812 -9.40940019 82.71481086 -12.74457877 81.0556501 C-13.71326757 80.56634701 -14.68195638 80.07704392 -15.67999939 79.57291346 C-17.00484374 78.91762918 -17.00484374 78.91762918 -18.35645263 78.24910683 C-19.11638343 77.8690594 -19.87631423 77.48901198 -20.65927324 77.09744796 C-24.73642368 75.54360389 -27.50577924 76.41921799 -31.1958001 78.26462358 Z " fill="#4D4D4D" transform="translate(2524.7606096167583,723.703393000178)"/>
</svg>
