<?xml version="1.0" encoding="UTF-8"?>
<svg version="1.1" xmlns="http://www.w3.org/2000/svg" width="256" height="256">
<path d="M0 0 C5.61 0 11.22 0 17 0 C17 5.28 17 10.56 17 16 C22.28 16 27.56 16 33 16 C33 21.28 33 26.56 33 32 C38.28 32 43.56 32 49 32 C49 37.28 49 42.56 49 48 C54.28 48 59.56 48 65 48 C65 53.28 65 58.56 65 64 C70.28 64 75.56 64 81 64 C81 69.28 81 74.56 81 80 C86.28 80 91.56 80 97 80 C97 90.89 97 101.78 97 113 C91.72 113 86.44 113 81 113 C81 118.28 81 123.56 81 129 C70.44 129 59.88 129 49 129 C49 134.28 49 139.56 49 145 C43.72 145 38.44 145 33 145 C33 150.28 33 155.56 33 161 C27.72 161 22.44 161 17 161 C17 166.28 17 171.56 17 177 C11.72 177 6.44 177 1 177 C1 187.56 1 198.12 1 209 C-4.28 209 -9.56 209 -15 209 C-15 214.28 -15 219.56 -15 225 C-25.89 225 -36.78 225 -48 225 C-48 219.72 -48 214.44 -48 209 C-53.28 209 -58.56 209 -64 209 C-64 203.72 -64 198.44 -64 193 C-69.28 193 -74.56 193 -80 193 C-80 187.72 -80 182.44 -80 177 C-85.28 177 -90.56 177 -96 177 C-96 171.72 -96 166.44 -96 161 C-101.28 161 -106.56 161 -112 161 C-112 150.11 -112 139.22 -112 128 C-106.72 128 -101.44 128 -96 128 C-96 122.72 -96 117.44 -96 112 C-90.72 112 -85.44 112 -80 112 C-80 106.72 -80 101.44 -80 96 C-74.72 96 -69.44 96 -64 96 C-64 90.72 -64 85.44 -64 80 C-58.72 80 -53.44 80 -48 80 C-48 74.72 -48 69.44 -48 64 C-42.72 64 -37.44 64 -32 64 C-32 58.72 -32 53.44 -32 48 C-26.72 48 -21.44 48 -16 48 C-16 37.44 -16 26.88 -16 16 C-10.72 16 -5.44 16 0 16 C0 10.72 0 5.44 0 0 Z " fill="#D6CBB0" transform="translate(144,16)"/>
<path d="M0 0 C5.61 0 11.22 0 17 0 C17 5.28 17 10.56 17 16 C22.28 16 27.56 16 33 16 C33 21.28 33 26.56 33 32 C38.28 32 43.56 32 49 32 C49 37.28 49 42.56 49 48 C54.28 48 59.56 48 65 48 C65 53.28 65 58.56 65 64 C70.28 64 75.56 64 81 64 C81 69.28 81 74.56 81 80 C86.28 80 91.56 80 97 80 C97 90.89 97 101.78 97 113 C91.72 113 86.44 113 81 113 C81 118.28 81 123.56 81 129 C70.44 129 59.88 129 49 129 C49 134.28 49 139.56 49 145 C43.72 145 38.44 145 33 145 C33 150.28 33 155.56 33 161 C27.72 161 22.44 161 17 161 C17 166.28 17 171.56 17 177 C11.72 177 6.44 177 1 177 C1 187.56 1 198.12 1 209 C-4.28 209 -9.56 209 -15 209 C-15 214.28 -15 219.56 -15 225 C-25.89 225 -36.78 225 -48 225 C-48 219.72 -48 214.44 -48 209 C-53.28 209 -58.56 209 -64 209 C-64 203.72 -64 198.44 -64 193 C-69.28 193 -74.56 193 -80 193 C-80 187.72 -80 182.44 -80 177 C-85.28 177 -90.56 177 -96 177 C-96 171.72 -96 166.44 -96 161 C-101.28 161 -106.56 161 -112 161 C-112 150.11 -112 139.22 -112 128 C-106.72 128 -101.44 128 -96 128 C-96 138.56 -96 149.12 -96 160 C-90.72 160 -85.44 160 -80 160 C-80 165.28 -80 170.56 -80 176 C-74.72 176 -69.44 176 -64 176 C-64 181.28 -64 186.56 -64 192 C-58.72 192 -53.44 192 -48 192 C-48 197.28 -48 202.56 -48 208 C-42.72 208 -37.44 208 -32 208 C-32 202.72 -32 197.44 -32 192 C-26.72 192 -21.44 192 -16 192 C-16 186.72 -16 181.44 -16 176 C-10.72 176 -5.44 176 0 176 C0 170.72 0 165.44 0 160 C5.28 160 10.56 160 16 160 C16 154.72 16 149.44 16 144 C21.28 144 26.56 144 32 144 C32 138.72 32 133.44 32 128 C37.28 128 42.56 128 48 128 C48 117.44 48 106.88 48 96 C53.28 96 58.56 96 64 96 C64 85.44 64 74.88 64 64 C58.72 64 53.44 64 48 64 C48 58.72 48 53.44 48 48 C42.72 48 37.44 48 32 48 C32 42.72 32 37.44 32 32 C26.72 32 21.44 32 16 32 C16 26.72 16 21.44 16 16 C10.72 16 5.44 16 0 16 C0 10.72 0 5.44 0 0 Z " fill="#39352B" transform="translate(144,16)"/>
<path d="M0 0 C5.28 0 10.56 0 16 0 C16 10.56 16 21.12 16 32 C21.28 32 26.56 32 32 32 C32 37.28 32 42.56 32 48 C37.28 48 42.56 48 48 48 C48 53.28 48 58.56 48 64 C53.28 64 58.56 64 64 64 C64 74.56 64 85.12 64 96 C58.72 96 53.44 96 48 96 C48 90.72 48 85.44 48 80 C42.72 80 37.44 80 32 80 C32 74.72 32 69.44 32 64 C26.72 64 21.44 64 16 64 C16 58.72 16 53.44 16 48 C10.72 48 5.44 48 0 48 C0 32.16 0 16.32 0 0 Z " fill="#99917D" transform="translate(48,128)"/>
<path d="M0 0 C10.56 0 21.12 0 32 0 C32 5.28 32 10.56 32 16 C37.28 16 42.56 16 48 16 C48 21.28 48 26.56 48 32 C53.28 32 58.56 32 64 32 C64 37.28 64 42.56 64 48 C58.72 48 53.44 48 48 48 C48 53.28 48 58.56 48 64 C42.72 64 37.44 64 32 64 C32 58.72 32 53.44 32 48 C26.72 48 21.44 48 16 48 C16 42.72 16 37.44 16 32 C10.72 32 5.44 32 0 32 C0 21.44 0 10.88 0 0 Z " fill="#C3B9A2" transform="translate(128,32)"/>
<path d="M0 0 C10.56 0 21.12 0 32 0 C32 10.56 32 21.12 32 32 C26.72 32 21.44 32 16 32 C16 42.56 16 53.12 16 64 C10.72 64 5.44 64 0 64 C0 69.28 0 74.56 0 80 C-4.95 80 -9.9 80 -15 80 C-15 69.44 -15 58.88 -15 48 C-10.05 48 -5.1 48 0 48 C0 32.16 0 16.32 0 0 Z " fill="#BBB19C" transform="translate(176,80)"/>
<path d="M0 0 C5.28 0 10.56 0 16 0 C16 10.56 16 21.12 16 32 C21.28 32 26.56 32 32 32 C32 37.28 32 42.56 32 48 C37.28 48 42.56 48 48 48 C48 53.28 48 58.56 48 64 C53.28 64 58.56 64 64 64 C64 69.61 64 75.22 64 81 C58.72 81 53.44 81 48 81 C48 75.72 48 70.44 48 65 C42.72 65 37.44 65 32 65 C32 59.72 32 54.44 32 49 C26.72 49 21.44 49 16 49 C16 43.72 16 38.44 16 33 C10.72 33 5.44 33 0 33 C0 22.11 0 11.22 0 0 Z " fill="#38342A" transform="translate(32,144)"/>
<path d="M0 0 C5.28 0 10.56 0 16 0 C16 5.28 16 10.56 16 16 C21.28 16 26.56 16 32 16 C32 21.28 32 26.56 32 32 C37.28 32 42.56 32 48 32 C48 37.28 48 42.56 48 48 C37.44 48 26.88 48 16 48 C16 42.72 16 37.44 16 32 C10.72 32 5.44 32 0 32 C0 21.44 0 10.88 0 0 Z " fill="#D9CEB3" transform="translate(128,64)"/>
<path d="M0 0 C15.84 0 31.68 0 48 0 C48 5.28 48 10.56 48 16 C42.72 16 37.44 16 32 16 C32 21.28 32 26.56 32 32 C26.72 32 21.44 32 16 32 C16 26.72 16 21.44 16 16 C10.72 16 5.44 16 0 16 C0 10.72 0 5.44 0 0 Z " fill="#BBB19B" transform="translate(144,64)"/>
<path d="M0 0 C5.28 0 10.56 0 16 0 C16 15.84 16 31.68 16 48 C10.72 48 5.44 48 0 48 C0 32.16 0 16.32 0 0 Z " fill="#98917D" transform="translate(48,128)"/>
<path d="M0 0 C5.28 0 10.56 0 16 0 C16 10.56 16 21.12 16 32 C5.44 32 -5.12 32 -16 32 C-16 26.72 -16 21.44 -16 16 C-10.72 16 -5.44 16 0 16 C0 10.72 0 5.44 0 0 Z " fill="#C3B9A2" transform="translate(112,64)"/>
<path d="M0 0 C10.56 0 21.12 0 32 0 C32 10.56 32 21.12 32 32 C26.72 32 21.44 32 16 32 C16 26.72 16 21.44 16 16 C10.72 16 5.44 16 0 16 C0 10.72 0 5.44 0 0 Z " fill="#BBB19B" transform="translate(176,80)"/>
<path d="M0 0 C10.23 0 20.46 0 31 0 C31 5.28 31 10.56 31 16 C25.72 16 20.44 16 15 16 C15 21.28 15 26.56 15 32 C10.05 32 5.1 32 0 32 C0 21.44 0 10.88 0 0 Z " fill="#BCB29C" transform="translate(129,160)"/>
<path d="M0 0 C5.28 0 10.56 0 16 0 C16 10.56 16 21.12 16 32 C10.72 32 5.44 32 0 32 C0 21.44 0 10.88 0 0 Z " fill="#373329" transform="translate(128,32)"/>
<path d="M0 0 C5.28 0 10.56 0 16 0 C16 5.28 16 10.56 16 16 C10.72 16 5.44 16 0 16 C0 10.72 0 5.44 0 0 Z " fill="#99917D" transform="translate(96,208)"/>
<path d="M0 0 C5.28 0 10.56 0 16 0 C16 5.28 16 10.56 16 16 C10.72 16 5.44 16 0 16 C0 10.72 0 5.44 0 0 Z " fill="#BCB29C" transform="translate(112,192)"/>
<path d="M0 0 C5.28 0 10.56 0 16 0 C16 5.28 16 10.56 16 16 C10.72 16 5.44 16 0 16 C0 10.72 0 5.44 0 0 Z " fill="#AEA694" transform="translate(96,192)"/>
<path d="M0 0 C5.28 0 10.56 0 16 0 C16 5.28 16 10.56 16 16 C10.72 16 5.44 16 0 16 C0 10.72 0 5.44 0 0 Z " fill="#99917D" transform="translate(80,192)"/>
<path d="M0 0 C5.28 0 10.56 0 16 0 C16 5.28 16 10.56 16 16 C10.72 16 5.44 16 0 16 C0 10.72 0 5.44 0 0 Z " fill="#363328" transform="translate(145,177)"/>
<path d="M0 0 C5.28 0 10.56 0 16 0 C16 5.28 16 10.56 16 16 C10.72 16 5.44 16 0 16 C0 10.72 0 5.44 0 0 Z " fill="#AEA694" transform="translate(80,176)"/>
<path d="M0 0 C5.28 0 10.56 0 16 0 C16 5.28 16 10.56 16 16 C10.72 16 5.44 16 0 16 C0 10.72 0 5.44 0 0 Z " fill="#363328" transform="translate(161,161)"/>
<path d="M0 0 C5.28 0 10.56 0 16 0 C16 5.28 16 10.56 16 16 C10.72 16 5.44 16 0 16 C0 10.72 0 5.44 0 0 Z " fill="#AEA694" transform="translate(64,160)"/>
<path d="M0 0 C5.28 0 10.56 0 16 0 C16 5.28 16 10.56 16 16 C10.72 16 5.44 16 0 16 C0 10.72 0 5.44 0 0 Z " fill="#363328" transform="translate(177,145)"/>
<path d="M0 0 C5.28 0 10.56 0 16 0 C16 5.28 16 10.56 16 16 C10.72 16 5.44 16 0 16 C0 10.72 0 5.44 0 0 Z " fill="#373329" transform="translate(48,128)"/>
<path d="M0 0 C5.28 0 10.56 0 16 0 C16 5.28 16 10.56 16 16 C10.72 16 5.44 16 0 16 C0 10.72 0 5.44 0 0 Z " fill="#7F796C" transform="translate(208,112)"/>
<path d="M0 0 C5.28 0 10.56 0 16 0 C16 5.28 16 10.56 16 16 C10.72 16 5.44 16 0 16 C0 10.72 0 5.44 0 0 Z " fill="#373329" transform="translate(64,112)"/>
<path d="M0 0 C5.28 0 10.56 0 16 0 C16 5.28 16 10.56 16 16 C10.72 16 5.44 16 0 16 C0 10.72 0 5.44 0 0 Z " fill="#3A362B" transform="translate(176,96)"/>
<path d="M0 0 C5.28 0 10.56 0 16 0 C16 5.28 16 10.56 16 16 C10.72 16 5.44 16 0 16 C0 10.72 0 5.44 0 0 Z " fill="#BBB19B" transform="translate(192,96)"/>
<path d="M0 0 C5.28 0 10.56 0 16 0 C16 5.28 16 10.56 16 16 C10.72 16 5.44 16 0 16 C0 10.72 0 5.44 0 0 Z " fill="#C6BCA5" transform="translate(128,96)"/>
<path d="M0 0 C5.28 0 10.56 0 16 0 C16 5.28 16 10.56 16 16 C10.72 16 5.44 16 0 16 C0 10.72 0 5.44 0 0 Z " fill="#373329" transform="translate(80,96)"/>
<path d="M0 0 C5.28 0 10.56 0 16 0 C16 5.28 16 10.56 16 16 C10.72 16 5.44 16 0 16 C0 10.72 0 5.44 0 0 Z " fill="#3A362B" transform="translate(160,80)"/>
<path d="M0 0 C5.28 0 10.56 0 16 0 C16 5.28 16 10.56 16 16 C10.72 16 5.44 16 0 16 C0 10.72 0 5.44 0 0 Z " fill="#373329" transform="translate(96,80)"/>
<path d="M0 0 C5.28 0 10.56 0 16 0 C16 5.28 16 10.56 16 16 C10.72 16 5.44 16 0 16 C0 10.72 0 5.44 0 0 Z " fill="#3A362B" transform="translate(144,64)"/>
<path d="M0 0 C5.28 0 10.56 0 16 0 C16 5.28 16 10.56 16 16 C10.72 16 5.44 16 0 16 C0 10.72 0 5.44 0 0 Z " fill="#373329" transform="translate(112,64)"/>
<path d="M0 0 C5.28 0 10.56 0 16 0 C16 4.95 16 9.9 16 15 C10.72 15 5.44 15 0 15 C0 10.05 0 5.1 0 0 Z " fill="#DBD0B4" transform="translate(192,81)"/>
<path d="M0 0 C5.28 0 10.56 0 16 0 C16 4.95 16 9.9 16 15 C10.72 15 5.44 15 0 15 C0 10.05 0 5.1 0 0 Z " fill="#DBD0B4" transform="translate(176,65)"/>
<path d="M0 0 C5.28 0 10.56 0 16 0 C16 4.95 16 9.9 16 15 C10.72 15 5.44 15 0 15 C0 10.05 0 5.1 0 0 Z " fill="#DBD0B4" transform="translate(160,49)"/>
<path d="M0 0 C4.95 0 9.9 0 15 0 C15 4.95 15 9.9 15 15 C10.05 15 5.1 15 0 15 C0 10.05 0 5.1 0 0 Z " fill="#AEA694" transform="translate(49,145)"/>
<path d="M0 0 C4.95 0 9.9 0 15 0 C15 4.95 15 9.9 15 15 C10.05 15 5.1 15 0 15 C0 10.05 0 5.1 0 0 Z " fill="#DCD1B5" transform="translate(145,33)"/>
</svg>
