<?xml version="1.0" encoding="UTF-8"?>
<svg version="1.1" xmlns="http://www.w3.org/2000/svg" width="256" height="256">
<path d="M0 0 C84.48 0 168.96 0 256 0 C256 84.48 256 168.96 256 256 C171.52 256 87.04 256 0 256 C0 171.52 0 87.04 0 0 Z " fill="#BCC6C6" transform="translate(0,0)"/>
<path d="M0 0 C9.24 0 18.48 0 28 0 C28 9.24 28 18.48 28 28 C37.24 28 46.48 28 56 28 C56 18.76 56 9.52 56 0 C65.24 0 74.48 0 84 0 C84 4.62 84 9.24 84 14 C88.62 14 93.24 14 98 14 C98 18.62 98 23.24 98 28 C103.28 28 108.56 28 114 28 C114 47.14 114 66.28 114 86 C118.62 86 123.24 86 128 86 C128 90.62 128 95.24 128 100 C123.38 100 118.76 100 114 100 C114 104.62 114 109.24 114 114 C118.62 114 123.24 114 128 114 C128 118.62 128 123.24 128 128 C123.38 128 118.76 128 114 128 C114 137.9 114 147.8 114 158 C108.72 158 103.44 158 98 158 C98 162.62 98 167.24 98 172 C88.76 172 79.52 172 70 172 C70 162.1 70 152.2 70 142 C65.38 142 60.76 142 56 142 C56 147.28 56 152.56 56 158 C46.76 158 37.52 158 28 158 C28 152.72 28 147.44 28 142 C23.38 142 18.76 142 14 142 C14 151.9 14 161.8 14 172 C4.76 172 -4.48 172 -14 172 C-14 167.38 -14 162.76 -14 158 C-19.28 158 -24.56 158 -30 158 C-30 148.1 -30 138.2 -30 128 C-34.62 128 -39.24 128 -44 128 C-44 123.38 -44 118.76 -44 114 C-39.38 114 -34.76 114 -30 114 C-30 109.38 -30 104.76 -30 100 C-34.62 100 -39.24 100 -44 100 C-44 95.38 -44 90.76 -44 86 C-39.38 86 -34.76 86 -30 86 C-30 66.86 -30 47.72 -30 28 C-24.72 28 -19.44 28 -14 28 C-14 23.38 -14 18.76 -14 14 C-9.38 14 -4.76 14 0 14 C0 9.38 0 4.76 0 0 Z " fill="#A44E37" transform="translate(86,34)"/>
<path d="M0 0 C13.86 0 27.72 0 42 0 C42 4.62 42 9.24 42 14 C46.62 14 51.24 14 56 14 C56 23.9 56 33.8 56 44 C61.28 44 66.56 44 72 44 C72 48.62 72 53.24 72 58 C81.24 58 90.48 58 100 58 C100 48.1 100 38.2 100 28 C104.62 28 109.24 28 114 28 C114 33.28 114 38.56 114 44 C123.24 44 132.48 44 142 44 C142 38.72 142 33.44 142 28 C146.62 28 151.24 28 156 28 C156 37.9 156 47.8 156 58 C165.24 58 174.48 58 184 58 C184 53.38 184 48.76 184 44 C189.28 44 194.56 44 200 44 C200 34.1 200 24.2 200 14 C204.62 14 209.24 14 214 14 C214 9.38 214 4.76 214 0 C227.86 0 241.72 0 256 0 C256 35.64 256 71.28 256 108 C171.52 108 87.04 108 0 108 C0 72.36 0 36.72 0 0 Z " fill="#AAAFB2" transform="translate(0,148)"/>
<path d="M0 0 C4.62 0 9.24 0 14 0 C14 9.9 14 19.8 14 30 C32.48 30 50.96 30 70 30 C70 20.1 70 10.2 70 0 C74.62 0 79.24 0 84 0 C84 9.9 84 19.8 84 30 C88.62 30 93.24 30 98 30 C98 57.72 98 85.44 98 114 C84.14 114 70.28 114 56 114 C56 119.28 56 124.56 56 130 C46.76 130 37.52 130 28 130 C28 124.72 28 119.44 28 114 C14.14 114 0.28 114 -14 114 C-14 86.28 -14 58.56 -14 30 C-9.38 30 -4.76 30 0 30 C0 20.1 0 10.2 0 0 Z " fill="#D6742F" transform="translate(86,62)"/>
<path d="M0 0 C5.28 0 10.56 0 16 0 C16 4.62 16 9.24 16 14 C20.62 14 25.24 14 30 14 C30 18.62 30 23.24 30 28 C25.38 28 20.76 28 16 28 C16 32.62 16 37.24 16 42 C20.62 42 25.24 42 30 42 C30 46.62 30 51.24 30 56 C25.38 56 20.76 56 16 56 C16 65.9 16 75.8 16 86 C10.72 86 5.44 86 0 86 C0 90.62 0 95.24 0 100 C-9.24 100 -18.48 100 -28 100 C-28 90.1 -28 80.2 -28 70 C-18.76 70 -9.52 70 0 70 C0 46.9 0 23.8 0 0 Z " fill="#BF6134" transform="translate(184,106)"/>
<path d="M0 0 C5.28 0 10.56 0 16 0 C16 23.1 16 46.2 16 70 C25.24 70 34.48 70 44 70 C44 79.9 44 89.8 44 100 C34.76 100 25.52 100 16 100 C16 95.38 16 90.76 16 86 C10.72 86 5.44 86 0 86 C0 76.1 0 66.2 0 56 C-4.62 56 -9.24 56 -14 56 C-14 51.38 -14 46.76 -14 42 C-9.38 42 -4.76 42 0 42 C0 37.38 0 32.76 0 28 C-4.62 28 -9.24 28 -14 28 C-14 23.38 -14 18.76 -14 14 C-9.38 14 -4.76 14 0 14 C0 9.38 0 4.76 0 0 Z " fill="#BF6134" transform="translate(56,106)"/>
<path d="M0 0 C9.24 0 18.48 0 28 0 C28 4.62 28 9.24 28 14 C32.62 14 37.24 14 42 14 C42 18.62 42 23.24 42 28 C47.28 28 52.56 28 58 28 C58 42.52 58 57.04 58 72 C52.72 72 47.44 72 42 72 C42 67.38 42 62.76 42 58 C37.38 58 32.76 58 28 58 C28 48.1 28 38.2 28 28 C23.38 28 18.76 28 14 28 C14 33.28 14 38.56 14 44 C9.38 44 4.76 44 0 44 C0 29.48 0 14.96 0 0 Z " fill="#A44E37" transform="translate(142,34)"/>
<path d="M0 0 C5.28 0 10.56 0 16 0 C16 4.62 16 9.24 16 14 C20.62 14 25.24 14 30 14 C30 18.62 30 23.24 30 28 C25.38 28 20.76 28 16 28 C16 32.62 16 37.24 16 42 C20.62 42 25.24 42 30 42 C30 46.62 30 51.24 30 56 C20.1 56 10.2 56 0 56 C0 37.52 0 19.04 0 0 Z " fill="#CE6D31" transform="translate(184,106)"/>
<path d="M0 0 C5.28 0 10.56 0 16 0 C16 18.48 16 36.96 16 56 C6.1 56 -3.8 56 -14 56 C-14 51.38 -14 46.76 -14 42 C-9.38 42 -4.76 42 0 42 C0 37.38 0 32.76 0 28 C-4.62 28 -9.24 28 -14 28 C-14 23.38 -14 18.76 -14 14 C-9.38 14 -4.76 14 0 14 C0 9.38 0 4.76 0 0 Z " fill="#CE6D31" transform="translate(56,106)"/>
<path d="M0 0 C4.62 0 9.24 0 14 0 C14 5.28 14 10.56 14 16 C23.24 16 32.48 16 42 16 C42 10.72 42 5.44 42 0 C46.62 0 51.24 0 56 0 C56 9.9 56 19.8 56 30 C37.52 30 19.04 30 0 30 C0 20.1 0 10.2 0 0 Z " fill="#F8F2F2" transform="translate(100,176)"/>
<path d="M0 0 C9.24 0 18.48 0 28 0 C28 5.28 28 10.56 28 16 C32.62 16 37.24 16 42 16 C42 20.62 42 25.24 42 30 C23.52 30 5.04 30 -14 30 C-14 25.38 -14 20.76 -14 16 C-9.38 16 -4.76 16 0 16 C0 10.72 0 5.44 0 0 Z " fill="#BE6134" transform="translate(114,62)"/>
<path d="M0 0 C9.24 0 18.48 0 28 0 C28 9.24 28 18.48 28 28 C23.38 28 18.76 28 14 28 C14 32.62 14 37.24 14 42 C9.38 42 4.76 42 0 42 C0 28.14 0 14.28 0 0 Z " fill="#E58B37" transform="translate(114,92)"/>
<path d="M0 0 C9.24 0 18.48 0 28 0 C28 4.62 28 9.24 28 14 C23.38 14 18.76 14 14 14 C14 23.9 14 33.8 14 44 C9.38 44 4.76 44 0 44 C0 29.48 0 14.96 0 0 Z " fill="#66534D" transform="translate(142,34)"/>
<path d="M0 0 C9.24 0 18.48 0 28 0 C28 14.52 28 29.04 28 44 C23.38 44 18.76 44 14 44 C14 34.1 14 24.2 14 14 C9.38 14 4.76 14 0 14 C0 9.38 0 4.76 0 0 Z " fill="#66534D" transform="translate(86,34)"/>
<path d="M0 0 C18.48 0 36.96 0 56 0 C56 4.62 56 9.24 56 14 C37.52 14 19.04 14 0 14 C0 9.38 0 4.76 0 0 Z " fill="#A44E38" transform="translate(100,206)"/>
<path d="M0 0 C9.24 0 18.48 0 28 0 C28 13.86 28 27.72 28 42 C23.38 42 18.76 42 14 42 C14 32.76 14 23.52 14 14 C9.38 14 4.76 14 0 14 C0 9.38 0 4.76 0 0 Z " fill="#F8F2F2" transform="translate(156,120)"/>
<path d="M0 0 C9.24 0 18.48 0 28 0 C28 4.62 28 9.24 28 14 C23.38 14 18.76 14 14 14 C14 23.24 14 32.48 14 42 C9.38 42 4.76 42 0 42 C0 28.14 0 14.28 0 0 Z " fill="#F8F2F2" transform="translate(72,120)"/>
<path d="M0 0 C9.24 0 18.48 0 28 0 C28 9.9 28 19.8 28 30 C23.38 30 18.76 30 14 30 C14 24.72 14 19.44 14 14 C9.38 14 4.76 14 0 14 C0 9.38 0 4.76 0 0 Z " fill="#66534E" transform="translate(156,48)"/>
<path d="M0 0 C9.24 0 18.48 0 28 0 C28 4.62 28 9.24 28 14 C23.38 14 18.76 14 14 14 C14 19.28 14 24.56 14 30 C9.38 30 4.76 30 0 30 C0 20.1 0 10.2 0 0 Z " fill="#66534E" transform="translate(72,48)"/>
<path d="M0 0 C5.28 0 10.56 0 16 0 C16 9.9 16 19.8 16 30 C10.72 30 5.44 30 0 30 C0 20.1 0 10.2 0 0 Z " fill="#A44E37" transform="translate(184,162)"/>
<path d="M0 0 C5.28 0 10.56 0 16 0 C16 9.9 16 19.8 16 30 C10.72 30 5.44 30 0 30 C0 20.1 0 10.2 0 0 Z " fill="#A44E37" transform="translate(56,162)"/>
<path d="M0 0 C9.24 0 18.48 0 28 0 C28 5.28 28 10.56 28 16 C18.76 16 9.52 16 0 16 C0 10.72 0 5.44 0 0 Z " fill="#14161B" transform="translate(114,176)"/>
<path d="M0 0 C9.24 0 18.48 0 28 0 C28 5.28 28 10.56 28 16 C18.76 16 9.52 16 0 16 C0 10.72 0 5.44 0 0 Z " fill="#A44E37" transform="translate(114,62)"/>
<path d="M0 0 C4.62 0 9.24 0 14 0 C14 9.9 14 19.8 14 30 C9.38 30 4.76 30 0 30 C0 20.1 0 10.2 0 0 Z " fill="#F8F2F2" transform="translate(142,176)"/>
<path d="M0 0 C4.62 0 9.24 0 14 0 C14 9.9 14 19.8 14 30 C9.38 30 4.76 30 0 30 C0 20.1 0 10.2 0 0 Z " fill="#E5D7D1" transform="translate(156,62)"/>
<path d="M0 0 C4.62 0 9.24 0 14 0 C14 9.9 14 19.8 14 30 C9.38 30 4.76 30 0 30 C0 20.1 0 10.2 0 0 Z " fill="#E5D7D1" transform="translate(86,62)"/>
<path d="M0 0 C9.24 0 18.48 0 28 0 C28 4.62 28 9.24 28 14 C18.76 14 9.52 14 0 14 C0 9.38 0 4.76 0 0 Z " fill="#E6D7D1" transform="translate(114,192)"/>
<path d="M0 0 C9.24 0 18.48 0 28 0 C28 4.62 28 9.24 28 14 C18.76 14 9.52 14 0 14 C0 9.38 0 4.76 0 0 Z " fill="#A44E37" transform="translate(156,192)"/>
<path d="M0 0 C9.24 0 18.48 0 28 0 C28 4.62 28 9.24 28 14 C18.76 14 9.52 14 0 14 C0 9.38 0 4.76 0 0 Z " fill="#A44E37" transform="translate(72,192)"/>
<path d="M0 0 C4.62 0 9.24 0 14 0 C14 9.24 14 18.48 14 28 C9.38 28 4.76 28 0 28 C0 18.76 0 9.52 0 0 Z " fill="#14161A" transform="translate(156,134)"/>
<path d="M0 0 C9.24 0 18.48 0 28 0 C28 4.62 28 9.24 28 14 C18.76 14 9.52 14 0 14 C0 9.38 0 4.76 0 0 Z " fill="#BF6134" transform="translate(114,148)"/>
<path d="M0 0 C4.62 0 9.24 0 14 0 C14 9.24 14 18.48 14 28 C9.38 28 4.76 28 0 28 C0 18.76 0 9.52 0 0 Z " fill="#14161A" transform="translate(86,134)"/>
<path d="M0 0 C9.24 0 18.48 0 28 0 C28 4.62 28 9.24 28 14 C18.76 14 9.52 14 0 14 C0 9.38 0 4.76 0 0 Z " fill="#BE6134" transform="translate(156,92)"/>
<path d="M0 0 C9.24 0 18.48 0 28 0 C28 4.62 28 9.24 28 14 C18.76 14 9.52 14 0 14 C0 9.38 0 4.76 0 0 Z " fill="#BE6134" transform="translate(72,92)"/>
<path d="M0 0 C5.28 0 10.56 0 16 0 C16 5.28 16 10.56 16 16 C10.72 16 5.44 16 0 16 C0 10.72 0 5.44 0 0 Z " fill="#66534D" transform="translate(184,62)"/>
<path d="M0 0 C5.28 0 10.56 0 16 0 C16 5.28 16 10.56 16 16 C10.72 16 5.44 16 0 16 C0 10.72 0 5.44 0 0 Z " fill="#66534D" transform="translate(56,62)"/>
<path d="M0 0 C5.28 0 10.56 0 16 0 C16 4.62 16 9.24 16 14 C10.72 14 5.44 14 0 14 C0 9.38 0 4.76 0 0 Z " fill="#BF6134" transform="translate(184,106)"/>
<path d="M0 0 C5.28 0 10.56 0 16 0 C16 4.62 16 9.24 16 14 C10.72 14 5.44 14 0 14 C0 9.38 0 4.76 0 0 Z " fill="#BF6134" transform="translate(56,106)"/>
<path d="M0 0 C4.62 0 9.24 0 14 0 C14 5.28 14 10.56 14 16 C9.38 16 4.76 16 0 16 C0 10.72 0 5.44 0 0 Z " fill="#8D7067" transform="translate(170,62)"/>
<path d="M0 0 C4.62 0 9.24 0 14 0 C14 5.28 14 10.56 14 16 C9.38 16 4.76 16 0 16 C0 10.72 0 5.44 0 0 Z " fill="#8D7067" transform="translate(72,62)"/>
<path d="M0 0 C4.62 0 9.24 0 14 0 C14 4.62 14 9.24 14 14 C9.38 14 4.76 14 0 14 C0 9.38 0 4.76 0 0 Z " fill="#A44F38" transform="translate(200,148)"/>
<path d="M0 0 C4.62 0 9.24 0 14 0 C14 4.62 14 9.24 14 14 C9.38 14 4.76 14 0 14 C0 9.38 0 4.76 0 0 Z " fill="#A44F38" transform="translate(42,148)"/>
<path d="M0 0 C4.62 0 9.24 0 14 0 C14 4.62 14 9.24 14 14 C9.38 14 4.76 14 0 14 C0 9.38 0 4.76 0 0 Z " fill="#E6D7D1" transform="translate(170,148)"/>
<path d="M0 0 C4.62 0 9.24 0 14 0 C14 4.62 14 9.24 14 14 C9.38 14 4.76 14 0 14 C0 9.38 0 4.76 0 0 Z " fill="#E6D7D1" transform="translate(72,148)"/>
<path d="M0 0 C4.62 0 9.24 0 14 0 C14 4.62 14 9.24 14 14 C9.38 14 4.76 14 0 14 C0 9.38 0 4.76 0 0 Z " fill="#272B33" transform="translate(156,134)"/>
<path d="M0 0 C4.62 0 9.24 0 14 0 C14 4.62 14 9.24 14 14 C9.38 14 4.76 14 0 14 C0 9.38 0 4.76 0 0 Z " fill="#272B33" transform="translate(86,134)"/>
<path d="M0 0 C4.62 0 9.24 0 14 0 C14 4.62 14 9.24 14 14 C9.38 14 4.76 14 0 14 C0 9.38 0 4.76 0 0 Z " fill="#BF6135" transform="translate(200,120)"/>
<path d="M0 0 C4.62 0 9.24 0 14 0 C14 4.62 14 9.24 14 14 C9.38 14 4.76 14 0 14 C0 9.38 0 4.76 0 0 Z " fill="#E6D7D1" transform="translate(156,120)"/>
<path d="M0 0 C4.62 0 9.24 0 14 0 C14 4.62 14 9.24 14 14 C9.38 14 4.76 14 0 14 C0 9.38 0 4.76 0 0 Z " fill="#E6D7D1" transform="translate(86,120)"/>
<path d="M0 0 C4.62 0 9.24 0 14 0 C14 4.62 14 9.24 14 14 C9.38 14 4.76 14 0 14 C0 9.38 0 4.76 0 0 Z " fill="#BF6135" transform="translate(42,120)"/>
<path d="M0 0 C4.62 0 9.24 0 14 0 C14 4.62 14 9.24 14 14 C9.38 14 4.76 14 0 14 C0 9.38 0 4.76 0 0 Z " fill="#66534D" transform="translate(170,78)"/>
<path d="M0 0 C4.62 0 9.24 0 14 0 C14 4.62 14 9.24 14 14 C9.38 14 4.76 14 0 14 C0 9.38 0 4.76 0 0 Z " fill="#C6A2B8" transform="translate(156,78)"/>
<path d="M0 0 C4.62 0 9.24 0 14 0 C14 4.62 14 9.24 14 14 C9.38 14 4.76 14 0 14 C0 9.38 0 4.76 0 0 Z " fill="#A44E37" transform="translate(142,78)"/>
<path d="M0 0 C4.62 0 9.24 0 14 0 C14 4.62 14 9.24 14 14 C9.38 14 4.76 14 0 14 C0 9.38 0 4.76 0 0 Z " fill="#A44E37" transform="translate(100,78)"/>
<path d="M0 0 C4.62 0 9.24 0 14 0 C14 4.62 14 9.24 14 14 C9.38 14 4.76 14 0 14 C0 9.38 0 4.76 0 0 Z " fill="#C6A2B8" transform="translate(86,78)"/>
<path d="M0 0 C4.62 0 9.24 0 14 0 C14 4.62 14 9.24 14 14 C9.38 14 4.76 14 0 14 C0 9.38 0 4.76 0 0 Z " fill="#66534D" transform="translate(72,78)"/>
<path d="M0 0 C4.62 0 9.24 0 14 0 C14 4.62 14 9.24 14 14 C9.38 14 4.76 14 0 14 C0 9.38 0 4.76 0 0 Z " fill="#8D7068" transform="translate(156,48)"/>
<path d="M0 0 C4.62 0 9.24 0 14 0 C14 4.62 14 9.24 14 14 C9.38 14 4.76 14 0 14 C0 9.38 0 4.76 0 0 Z " fill="#8D7068" transform="translate(86,48)"/>
</svg>
