<?xml version="1.0" encoding="UTF-8"?>
<svg version="1.1" xmlns="http://www.w3.org/2000/svg" width="1280" height="1280">
<path d="M0 0 C1.49598887 0.73453438 2.9640689 1.52700339 4.41015625 2.35546875 C6.55667589 3.38149758 8.70387322 4.40610924 10.8515625 5.4296875 C13.2285198 6.62821759 15.60178573 7.83258881 17.97265625 9.04296875 C19.23055686 9.67917888 20.48877895 10.31475377 21.74731445 10.94970703 C24.20779855 12.19205806 26.66675707 13.43733173 29.12402344 14.68603516 C33.11013305 16.71107361 37.10096254 18.72640936 41.09765625 20.73046875 C41.70738281 21.03686279 42.31710937 21.34325684 42.9453125 21.65893555 C47.58253921 23.97567905 52.27198787 26.17094761 56.97265625 28.35546875 C63.03114731 31.173787 68.94898738 34.17900799 74.82543945 37.35766602 C85.03733592 42.87437585 95.46534714 47.929312 105.97265625 52.85546875 C112.37506748 55.85712036 118.64091641 59.02519462 124.85009766 62.40625 C130.14064873 65.26493426 135.54910194 67.82411725 141.00219727 70.35571289 C147.88572184 73.55635251 154.66759571 76.94359382 161.44384766 80.36425781 C164.67839097 81.9947825 167.9195704 83.61199661 171.16015625 85.23046875 C172.48831418 85.89446538 173.81643843 86.5585294 175.14453125 87.22265625 C175.82966797 87.56522461 176.51480469 87.90779297 177.22070312 88.26074219 C179.58072917 89.44075521 181.94075521 90.62076823 184.30078125 91.80078125 C185.13939697 92.22004883 185.9780127 92.63931641 186.84204102 93.07128906 C188.55359704 93.92714843 190.26502295 94.78326809 191.97631836 95.63964844 C195.88488489 97.59524696 199.79474962 99.54798401 203.7109375 101.48828125 C210.10414691 104.66067217 216.44775144 107.8920406 222.72265625 111.29296875 C229.1384848 114.76287549 235.68496861 117.90344104 242.2878418 120.99975586 C252.95731498 126.00607693 263.45824742 131.2922151 273.84765625 136.85546875 C280.17810768 140.24256792 286.58984472 143.38267896 293.10083008 146.40625 C303.17329175 151.08776763 313.07905342 156.0700536 322.84765625 161.35546875 C328.04097385 164.16447593 333.30023167 166.75499164 338.66015625 169.23046875 C347.27512948 173.21594177 355.64868743 177.60768362 364.01855469 182.08105469 C366.4596489 183.38184193 368.90655316 184.67103561 371.35546875 185.95703125 C372.14244141 186.37090088 372.92941406 186.78477051 373.74023438 187.21118164 C375.24103724 188.00038042 376.74232019 188.78866709 378.24414062 189.57592773 C383.29713221 192.24244471 383.29713221 192.24244471 384.41015625 193.35546875 C384.51634356 195.92002325 384.55668052 198.45798518 384.55555058 201.02335739 C384.5608765 202.24860048 384.5608765 202.24860048 384.56631002 203.49859595 C384.57708721 206.27126655 384.58063349 209.04390079 384.58424377 211.81658936 C384.59040105 213.81029362 384.59697664 215.80399664 384.60393757 217.79769826 C384.6217962 223.30414211 384.63320293 228.81058364 384.64349425 234.31704617 C384.65310943 239.0331134 384.6664259 243.74916724 384.67976321 248.46522519 C384.72742075 265.36091101 384.76001766 282.25661797 384.7890625 299.15234375 C384.79021749 299.81916653 384.79137248 300.4859893 384.79256247 301.17301883 C384.83825095 327.55745668 384.87790058 353.94190432 384.90458741 380.32636862 C384.91121122 386.86536574 384.9180846 393.40436261 384.92504883 399.94335938 C384.92581201 400.66592656 384.9265752 401.38849374 384.92736151 402.1329569 C384.9523111 425.56629059 385.00579839 448.99944693 385.07506709 472.43268835 C385.1461129 496.51087483 385.19123937 520.58896589 385.20256818 544.6672584 C385.20417316 548.066149 385.20606076 551.46503939 385.20811272 554.86392975 C385.2085056 555.53289097 385.20889848 556.20185218 385.20930327 556.89108495 C385.21636927 567.66971271 385.25060817 578.44809173 385.29477373 589.22662413 C385.33852668 600.05570271 385.35241476 610.88449629 385.33768047 621.71365401 C385.33054838 627.58379904 385.33658883 633.4531752 385.3772583 639.32320023 C385.414165 644.69254149 385.41448754 650.06056996 385.38513469 655.42994633 C385.38104316 657.37685066 385.3906155 659.3238392 385.41490049 661.27059636 C385.4458635 663.91008925 385.42790966 666.5448242 385.39733219 669.18421555 C385.41806245 669.94729782 385.43879271 670.7103801 385.46015117 671.49658608 C385.40489489 673.63220477 385.40489489 673.63220477 384.41015625 677.35546875 C381.977381 679.54221532 379.34492904 680.9450169 376.41015625 682.35546875 C375.21212952 682.99050958 374.01472549 683.62672878 372.81835938 684.26489258 C371.6114215 684.86820659 370.40236286 685.46729338 369.19140625 686.0625 C368.19989563 686.55613289 368.19989563 686.55613289 367.18835449 687.05973816 C365.09749822 688.09964672 363.00393488 689.13395899 360.91015625 690.16796875 C359.5401758 690.84792706 358.170383 691.52826358 356.80078125 692.20898438 C354.05758428 693.57180931 351.31366018 694.93315198 348.5690918 696.29321289 C334.24332092 703.36792949 334.24332092 703.36792949 320.09765625 710.79296875 C313.30778406 714.43207345 306.40909662 717.78253205 299.43310547 721.04833984 C292.34450065 724.3689059 285.34429124 727.84743198 278.35742188 731.37597656 C276.39420596 732.36349189 274.42647879 733.34138419 272.45703125 734.31640625 C265.61355571 737.70874043 258.82829244 741.18156006 252.09765625 744.79296875 C245.28755364 748.44272498 238.36338207 751.78158642 231.36279297 755.04833984 C225.77542928 757.66995329 220.31925098 760.47041319 214.89306641 763.40869141 C203.94845172 769.32810664 192.73962778 774.69508722 181.48632812 779.99755859 C171.22260686 784.84385265 161.07911954 789.88861848 151.09765625 795.29296875 C144.68256246 798.76208625 138.13788875 801.90424127 131.53466797 804.99755859 C124.41481389 808.3356632 117.38095982 811.82761141 110.36181641 815.37158203 C107.04899389 817.04166894 103.72918948 818.69776935 100.41015625 820.35546875 C99.07679038 821.02207033 97.74345702 821.68873696 96.41015625 822.35546875 C14.06494141 863.52807617 14.06494141 863.52807617 11.18927002 864.95028687 C9.33098192 865.88987876 7.4893191 866.86307088 5.66571045 867.86831665 C-0.74726391 871.34278998 -0.74726391 871.34278998 -4.72119141 871.40258789 C-8.4549306 870.03969364 -11.9559618 868.41934739 -15.48828125 866.6015625 C-16.61721298 866.03285179 -16.61721298 866.03285179 -17.76895142 865.45265198 C-20.17146547 864.24025999 -22.56819925 863.0169158 -24.96484375 861.79296875 C-26.53608086 860.99730102 -28.10769263 860.20237271 -29.6796875 859.40820312 C-32.79893273 857.83119374 -35.91641271 856.25077789 -39.0324707 854.66748047 C-49.34411014 849.43175688 -59.67791263 844.2594591 -70.15234375 839.35546875 C-76.93557935 836.15328378 -83.61402214 832.82562643 -90.20825195 829.25170898 C-100.32913131 823.76996822 -110.6796316 818.76074394 -121.08984375 813.85546875 C-132.54771069 808.45600943 -143.86084958 802.83483104 -155.02734375 796.85546875 C-161.35925213 793.46759004 -167.77262104 790.32714563 -174.28491211 787.30249023 C-184.69487812 782.46351535 -194.90846664 777.2745995 -205.02734375 771.85546875 C-211.3592303 768.46755096 -217.7726233 765.32714458 -224.28491211 762.30249023 C-234.71002042 757.4564766 -244.94349726 752.25884854 -255.08984375 746.85546875 C-266.63282806 740.70968028 -278.32764736 734.9387939 -290.15234375 729.35546875 C-296.93237671 726.15207823 -303.61145861 722.83067778 -310.20166016 719.25390625 C-316.42042724 715.88193743 -322.74521126 712.73998676 -329.08398438 709.6003418 C-334.50969147 706.90493255 -339.92549995 704.18960858 -345.34365845 701.47906494 C-349.16763195 699.56622095 -352.99204486 697.65425583 -356.81640625 695.7421875 C-358.3776062 694.96159262 -359.93880411 694.18099365 -361.5 693.40039062 C-362.2748877 693.01294678 -363.04977539 692.62550293 -363.84814453 692.22631836 C-379.85791016 684.22143555 -379.85791016 684.22143555 -381.77374268 683.25961304 C-383.49470894 682.40283153 -385.22634523 681.5675807 -386.95849609 680.73364258 C-389.58984375 679.35546875 -389.58984375 679.35546875 -391.58984375 677.35546875 C-391.78971821 674.72217265 -391.86298677 672.19368846 -391.84990597 669.55894566 C-391.85371164 668.74036389 -391.85751731 667.92178213 -391.8614383 667.07839486 C-391.87183333 664.30574589 -391.86783347 661.53329866 -391.86399841 658.76063538 C-391.86844653 656.76464191 -391.87375915 654.76865022 -391.87986714 652.77266115 C-391.89410862 647.26459648 -391.89570927 641.75658807 -391.89527023 636.24850762 C-391.89691302 630.317266 -391.90996932 624.38604792 -391.92146301 618.45481873 C-391.9431611 606.15161471 -391.95172348 593.84842187 -391.95649802 581.54520216 C-391.95675919 580.87615775 -391.95702037 580.20711334 -391.95728946 579.51779485 C-391.95754973 578.84744666 -391.95781001 578.17709848 -391.95807817 577.48643671 C-391.96115729 570.0664353 -391.96766086 562.64643746 -391.97429085 555.22643852 C-391.99394104 532.82741119 -392.01034439 510.42838774 -392.01316738 488.02935123 C-392.01326144 487.31255456 -392.0133555 486.59575788 -392.01345241 485.85724009 C-392.01383091 482.9522178 -392.0141949 480.04719552 -392.01455539 477.14217323 C-392.01482712 474.95554062 -392.01510379 472.768908 -392.01538086 470.58227539 C-392.01551289 469.49845667 -392.01551289 469.49845667 -392.01564759 468.39274262 C-392.01855411 445.68146789 -392.040658 422.97027821 -392.0769043 400.2590332 C-392.11759506 374.76212886 -392.14132568 349.26528247 -392.14162689 323.76834387 C-392.14172372 321.05166748 -392.14189045 318.33499112 -392.14210701 315.61831474 C-392.14215112 314.94936518 -392.14219524 314.28041562 -392.14224069 313.59119486 C-392.14336239 302.80765516 -392.16079776 292.0242004 -392.18392633 281.24068809 C-392.20672441 270.41067928 -392.21059742 259.58079125 -392.19637703 248.75076754 C-392.18917575 242.87902505 -392.19020341 237.007578 -392.21278763 231.13586807 C-392.2332388 225.76753684 -392.23090812 220.39973077 -392.20991278 215.0314061 C-392.20639116 213.08256555 -392.21143942 211.13368816 -392.22561722 209.184896 C-392.24357081 206.54855837 -392.23114291 203.91410984 -392.21066952 201.27783298 C-392.22951458 200.1257573 -392.22951458 200.1257573 -392.24874035 198.95040736 C-392.21313757 196.82918507 -392.21313757 196.82918507 -391.58984375 193.35546875 C-389.16818386 191.42530817 -389.16818386 191.42530817 -386.58984375 190.35546875 C-385.6620813 189.84077026 -385.6620813 189.84077026 -384.71557617 189.31567383 C-382.7372178 188.26442368 -380.75829128 187.21433419 -378.77734375 186.16796875 C-377.79604492 185.64493164 -377.79604492 185.64493164 -376.79492188 185.11132812 C-372.26498081 182.71361978 -367.69647826 180.39883895 -363.1105957 178.11010742 C-361.66997088 177.39067453 -360.22936476 176.67120419 -358.78877258 175.95170593 C-357.97271357 175.54425329 -357.15665455 175.13680065 -356.31586647 174.71700096 C-351.52424288 172.32378911 -346.73395495 169.92790577 -341.94348657 167.53238261 C-338.75135699 165.93615828 -335.55914488 164.340099 -332.36694336 162.74401855 C-331.01520755 162.06815159 -329.66347212 161.39228386 -328.31173706 160.71641541 C-285.40443929 139.26276652 -242.49714152 117.80911764 -199.58984375 96.35546875 C-199.0046734 96.06287782 -198.41950305 95.77028689 -197.81660026 95.46882957 C-194.50029254 93.81065337 -191.1839577 92.15253149 -187.86753178 90.49459171 C-179.18180441 86.15231792 -170.49736723 81.80747353 -161.81386566 77.46075058 C-145.88807203 69.4888098 -129.96097172 61.51948184 -114.03330135 53.55129147 C-104.8526303 48.95837597 -95.67234049 44.3647014 -86.49291992 39.76928711 C-78.43590033 35.73577384 -70.37816434 31.70369586 -62.31958681 27.67329603 C-58.07164411 25.54867766 -53.82404621 23.42337684 -49.57731438 21.29633904 C-45.58321761 19.29586341 -41.58815666 17.29732617 -37.59239006 15.30018806 C-36.13896037 14.5733373 -34.68586509 13.84581732 -33.23315811 13.11752319 C-29.33547232 11.16373447 -25.43214029 9.22240062 -21.51748157 7.30282474 C-20.18637183 6.64863816 -18.857112 5.99067874 -17.52937818 5.32966733 C-15.48885539 4.31658888 -13.44118781 3.31955502 -11.39112854 2.32594299 C-10.77479646 2.01673477 -10.15846437 1.70752655 -9.52345556 1.38894838 C-6.0604201 -0.26598213 -3.74425196 -1.07069842 0 0 Z " fill="#FBFBFB" transform="translate(643.58984375,203.64453125)"/>
<path d="M0 0 C7.69669397 -0.09438508 7.69669397 -0.09438508 10.88964844 1.60131836 C11.56923615 1.95298065 12.24882385 2.30464294 12.94900513 2.66696167 C13.66192719 3.05401276 14.37484924 3.44106384 15.109375 3.83984375 C15.86958954 4.23736847 16.62980408 4.63489319 17.41305542 5.04446411 C19.86550357 6.32966336 22.30744136 7.63362063 24.75 8.9375 C27.27498762 10.26522322 29.80270985 11.58762167 32.33084106 12.90934753 C33.98288751 13.77309999 35.63416155 14.63833146 37.28463745 15.50508118 C43.00050566 18.50144011 48.76099189 21.36575622 54.625 24.0625 C61.41072809 27.19654746 68.00797566 30.60579484 74.59814453 34.13110352 C80.81712889 37.43402431 87.13295404 40.49383794 93.5 43.5 C100.54677726 46.82787111 107.50651926 50.25542785 114.375 53.9375 C121.65350354 57.83847878 129.04002688 61.45904443 136.5 65 C144.74058578 68.91148167 152.8597134 72.9718309 160.8984375 77.28125 C167.97658709 81.04904051 175.20414687 84.47138296 182.45361328 87.89477539 C189.33765937 91.16190707 196.08109432 94.6327291 202.796875 98.23046875 C208.94842346 101.50234939 215.20017864 104.52505543 221.5 107.5 C228.546753 110.82792421 235.50651688 114.25542657 242.375 117.9375 C249.65350354 121.83847878 257.04002688 125.45904443 264.5 129 C272.74058578 132.91148167 280.8597134 136.9718309 288.8984375 141.28125 C295.97658709 145.04904051 303.20414687 148.47138296 310.45361328 151.89477539 C317.33765937 155.16190707 324.08109432 158.6327291 330.796875 162.23046875 C336.94842486 165.50235013 343.20018179 168.52504239 349.5 171.5 C359.04861877 176.00966871 368.42025112 180.78733161 377.71264648 185.80249023 C381.11633204 187.58443897 384.56367444 189.28183722 388 191 C388 350.39 388 509.78 388 674 C383.78142348 672.94535587 380.27066513 671.22422414 376.4375 669.25 C370.03092197 665.99400605 363.57780125 662.89869208 357 660 C357 659.34 357 658.68 357 658 C356.18402344 657.92523437 355.36804688 657.85046875 354.52734375 657.7734375 C350.03384734 656.78815257 346.56008835 654.84550916 342.5625 652.625 C335.30443437 648.69354778 327.96815101 645.01552908 320.5 641.5 C310.82122383 636.93086451 301.33978814 632.05988925 291.90576172 627.0078125 C289.29303648 625.62614074 286.65091004 624.30660969 284 623 C284 623.66 284 624.32 284 625 C279.15496182 623.50573589 274.68637931 621.5552257 270.125 619.375 C269.3825 619.02236084 268.64 618.66972168 267.875 618.30639648 C257.31400372 613.26866701 246.8772654 608.02403807 236.5625 602.5 C230.23061345 599.11208221 223.81722045 595.97167583 217.30493164 592.94702148 C206.89496563 588.1080466 196.68137711 582.91913075 186.5625 577.5 C180.23061345 574.11208221 173.81722045 570.97167583 167.30493164 567.94702148 C156.87982333 563.10100785 146.64634649 557.90337979 136.5 552.5 C124.95701569 546.35421153 113.26219639 540.58332515 101.4375 535 C94.65746704 531.79660948 87.97838514 528.47520903 81.38818359 524.8984375 C75.16941651 521.52646868 68.84463249 518.38451801 62.50585938 515.24487305 C57.08015228 512.5494638 51.6643438 509.83413983 46.2461853 507.12359619 C42.4222118 505.2107522 38.59779889 503.29878708 34.7734375 501.38671875 C33.21223755 500.60612387 31.65103964 499.8255249 30.08984375 499.04492188 C29.31495605 498.65747803 28.54006836 498.27003418 27.74169922 497.87084961 C11.73193359 489.8659668 11.73193359 489.8659668 9.81610107 488.90414429 C8.09513481 488.04736278 6.36349852 487.21211195 4.63134766 486.37817383 C2 485 2 485 0 483 C-0.19536997 480.36876008 -0.26406522 477.84301505 -0.24609566 475.21071434 C-0.24840335 474.39292216 -0.25071103 473.57512998 -0.25308865 472.73255622 C-0.25842788 469.9626055 -0.24937224 467.19288228 -0.24050903 464.42294312 C-0.2413803 462.42893787 -0.24312982 460.43493285 -0.24568737 458.44092906 C-0.25018043 452.9384586 -0.24213044 447.43606533 -0.23213124 441.93360472 C-0.22352712 436.00856743 -0.22641474 430.08353481 -0.22793579 424.15849304 C-0.22898657 413.88528838 -0.22275934 403.61210724 -0.21146011 393.33890915 C-0.1996365 382.56138362 -0.19193033 371.78386818 -0.18975449 361.00633621 C-0.18961701 360.3368682 -0.18947953 359.66740018 -0.18933788 358.97764526 C-0.18866124 355.57792149 -0.18805846 352.17819771 -0.18748413 348.77847393 C-0.18328042 324.68206168 -0.16979767 300.58566263 -0.15087891 276.48925781 C-0.13251782 253.07617259 -0.11834678 229.66309098 -0.10986328 206.25 C-0.10960023 205.52863405 -0.10933718 204.80726809 -0.10906615 204.06404257 C-0.10642917 196.81995967 -0.10387753 189.57587674 -0.10138843 182.3317938 C-0.09631566 167.57402974 -0.09067315 152.81626591 -0.08468628 138.0585022 C-0.0844117 137.37992563 -0.08413712 136.70134906 -0.08385422 136.00220956 C-0.06544487 90.66813413 -0.03371202 45.33406635 0 0 Z " fill="#E4E4E4" transform="translate(252,398)"/>
<path d="M0 0 C5.91085205 1.66211979 11.05614241 4.55479161 16.4375 7.4375 C25.44089419 12.20446924 34.53565087 16.70133291 43.75097656 21.04223633 C50.53721476 24.255195 57.1947134 27.65580652 63.77490234 31.2722168 C66.83656593 32.93977856 69.59929941 34.25107751 73 35 C73 35.66 73 36.32 73 37 C73.72920654 37.11786865 74.45841309 37.2357373 75.2097168 37.35717773 C78.02311836 38.00532598 80.10957274 38.92283161 82.64453125 40.28515625 C83.48564453 40.73310547 84.32675781 41.18105469 85.19335938 41.64257812 C86.48983398 42.34543945 86.48983398 42.34543945 87.8125 43.0625 C88.69615234 43.53494141 89.57980469 44.00738281 90.49023438 44.49414062 C92.66331578 45.65703284 94.83302284 46.82578375 97 48 C97 48.66 97 49.32 97 50 C92.87614069 49.37793355 89.65957525 48.00416189 85.94921875 46.12109375 C84.78398682 45.53360352 83.61875488 44.94611328 82.41821289 44.34082031 C81.17461614 43.70643076 79.9310457 43.07198963 78.6875 42.4375 C77.4084364 41.79071852 76.12905637 41.14456243 74.84936523 40.49902344 C72.34234728 39.23336893 69.83684266 37.96481123 67.33300781 36.69287109 C63.41421224 34.70247199 59.4914538 32.72026406 55.5625 30.75 C54.9634082 30.44892334 54.36431641 30.14784668 53.74707031 29.83764648 C48.35008956 27.1413126 42.89318306 24.5749079 37.4375 22 C30.59031525 18.76823225 23.85959456 15.39948122 17.21240234 11.77539062 C11.2713229 8.55502345 5.17245927 5.74794139 -1 3 C-0.67 2.01 -0.34 1.02 0 0 Z " fill="#F3F3F3" transform="translate(536,1021)"/>
<path d="M0 0 C3.8220849 1.49850703 7.32398657 3.32697777 10.91015625 5.3125 C15.00321635 7.56511134 19.00517083 9.57819468 23.34765625 11.3125 C25.98008714 12.63535846 28.56975692 14.03447031 31.16015625 15.4375 C31.85302734 15.81003906 32.54589844 16.18257812 33.25976562 16.56640625 C34.95700461 17.47940377 36.65250763 18.39562716 38.34765625 19.3125 C38.01765625 19.9725 37.68765625 20.6325 37.34765625 21.3125 C30.90851148 19.50502077 25.28565776 16.79310749 19.45239258 13.58154297 C13.66543899 10.41688171 7.73620795 7.62482024 1.71875 4.92700195 C-3.54698747 2.52321256 -3.54698747 2.52321256 -4.65234375 0.3125 C-2.65234375 -0.6875 -2.65234375 -0.6875 0 0 Z " fill="#F3F3F3" transform="translate(496.65234375,1000.6875)"/>
<path d="M0 0 C4.62675657 1.3922459 8.64686231 3.29520984 12.875 5.625 C14.02742188 6.25664063 15.17984375 6.88828125 16.3671875 7.5390625 C17.67042969 8.26222656 17.67042969 8.26222656 19 9 C18.67 9.66 18.34 10.32 18 11 C10.21914961 8.87323423 5.56562886 5.87483046 0 0 Z " fill="#F3F3F3" transform="translate(454,980)"/>
<path d="M0 0 C4.50727647 0.60266785 7.8587963 2.36599794 11.8125 4.5625 C12.7087207 5.0565332 12.7087207 5.0565332 13.62304688 5.56054688 C15.08533998 6.36773267 16.5431399 7.18304917 18 8 C17.67 8.66 17.34 9.32 17 10 C9.65876296 7.99339521 5.38419977 5.38419977 0 0 Z " fill="#F1F1F1" transform="translate(475,991)"/>
<path d="M0 0 C1.45903258 0.30921884 2.91720722 0.62248799 4.375 0.9375 C5.18710937 1.11152344 5.99921875 1.28554688 6.8359375 1.46484375 C9 2 9 2 11 3 C11 3.99 11 4.98 11 6 C7.2089881 4.55049545 3.6125362 2.84827434 0 1 C0 0.67 0 0.34 0 0 Z " fill="#F4F4F4" transform="translate(788,278)"/>
<path d="M0 0 C3.95820859 0.56545837 6.6659053 1.80902348 10 4 C9.01 5.485 9.01 5.485 8 7 C2.25 2.25 2.25 2.25 0 0 Z " fill="#F7F7F7" transform="translate(475,991)"/>
<path d="M0 0 C3.35595828 0.59927826 5.37801226 1.84622436 8 4 C7.34 4.66 6.68 5.32 6 6 C1.125 2.25 1.125 2.25 0 0 Z " fill="#F8F8F8" transform="translate(557,1032)"/>
<path d="M0 0 C2.64 1.65 5.28 3.3 8 5 C4 6 4 6 1.25 4.5625 C0.5075 4.046875 -0.235 3.53125 -1 3 C-0.67 2.01 -0.34 1.02 0 0 Z " fill="#EBEBEB" transform="translate(453,979)"/>
<path d="" fill="#FFFFFF" transform="translate(0,0)"/>
</svg>
